solid OpenSCAD_Model
  facet normal 1 -0 0
    outer loop
      vertex 123 -3 9
      vertex 123 83 0
      vertex 123 83 9
    endloop
  endfacet
  facet normal 1 0 0
    outer loop
      vertex 123 83 0
      vertex 123 -3 9
      vertex 123 -3 0
    endloop
  endfacet
  facet normal 0 0 1
    outer loop
      vertex 123 83 9
      vertex 120.01 80.01 9
      vertex 123 -3 9
    endloop
  endfacet
  facet normal 0 0 1
    outer loop
      vertex 123 83 9
      vertex -0.00999928 80.01 9
      vertex 120.01 80.01 9
    endloop
  endfacet
  facet normal 0 0 1
    outer loop
      vertex -0.00999928 80.01 9
      vertex -3 83 9
      vertex -0.00999928 -0.00999928 9
    endloop
  endfacet
  facet normal -0 0 1
    outer loop
      vertex -3 83 9
      vertex -0.00999928 80.01 9
      vertex 123 83 9
    endloop
  endfacet
  facet normal -0 0 1
    outer loop
      vertex 120.01 -0.00999928 9
      vertex 123 -3 9
      vertex 120.01 80.01 9
    endloop
  endfacet
  facet normal -0 0 1
    outer loop
      vertex -0.00999928 -0.00999928 9
      vertex 123 -3 9
      vertex 120.01 -0.00999928 9
    endloop
  endfacet
  facet normal 0 0 1
    outer loop
      vertex -0.00999928 -0.00999928 9
      vertex -3 -3 9
      vertex 123 -3 9
    endloop
  endfacet
  facet normal 0 0 1
    outer loop
      vertex -3 -3 9
      vertex -0.00999928 -0.00999928 9
      vertex -3 83 9
    endloop
  endfacet
  facet normal 0 0 -1
    outer loop
      vertex 123 -3 0
      vertex 120.01 -0.00999928 0
      vertex 123 83 0
    endloop
  endfacet
  facet normal 0 0 -1
    outer loop
      vertex 123 -3 0
      vertex -0.00999928 -0.00999928 0
      vertex 120.01 -0.00999928 0
    endloop
  endfacet
  facet normal -0 0 -1
    outer loop
      vertex -0.00999928 -0.00999928 0
      vertex -3 -3 0
      vertex -0.00999928 80.01 0
    endloop
  endfacet
  facet normal 0 0 -1
    outer loop
      vertex -3 -3 0
      vertex -0.00999928 -0.00999928 0
      vertex 123 -3 0
    endloop
  endfacet
  facet normal 0 0 -1
    outer loop
      vertex 120.01 80.01 0
      vertex 123 83 0
      vertex 120.01 -0.00999928 0
    endloop
  endfacet
  facet normal 0 0 -1
    outer loop
      vertex -0.00999928 80.01 0
      vertex 123 83 0
      vertex 120.01 80.01 0
    endloop
  endfacet
  facet normal 0 0 -1
    outer loop
      vertex -0.00999928 80.01 0
      vertex -3 83 0
      vertex 123 83 0
    endloop
  endfacet
  facet normal 0 0 -1
    outer loop
      vertex -3 83 0
      vertex -0.00999928 80.01 0
      vertex -3 -3 0
    endloop
  endfacet
  facet normal -1 0 0
    outer loop
      vertex -3 -3 0
      vertex -3 83 9
      vertex -3 83 0
    endloop
  endfacet
  facet normal -1 -0 0
    outer loop
      vertex -3 83 9
      vertex -3 -3 0
      vertex -3 -3 9
    endloop
  endfacet
  facet normal 0 1 -0
    outer loop
      vertex 123 83 0
      vertex -3 83 9
      vertex 123 83 9
    endloop
  endfacet
  facet normal 0 1 0
    outer loop
      vertex -3 83 9
      vertex 123 83 0
      vertex -3 83 0
    endloop
  endfacet
  facet normal 0 -1 0
    outer loop
      vertex -3 -3 0
      vertex 123 -3 9
      vertex -3 -3 9
    endloop
  endfacet
  facet normal 0 -1 -0
    outer loop
      vertex 123 -3 9
      vertex -3 -3 0
      vertex 123 -3 0
    endloop
  endfacet
  facet normal -1 0 0
    outer loop
      vertex 120.01 -0.00999928 0
      vertex 120.01 80.01 9
      vertex 120.01 80.01 0
    endloop
  endfacet
  facet normal -1 -0 0
    outer loop
      vertex 120.01 80.01 9
      vertex 120.01 -0.00999928 0
      vertex 120.01 -0.00999928 9
    endloop
  endfacet
  facet normal 1 -0 0
    outer loop
      vertex -0.00999928 -0.00999928 9
      vertex -0.00999928 80.01 0
      vertex -0.00999928 80.01 9
    endloop
  endfacet
  facet normal 1 0 0
    outer loop
      vertex -0.00999928 80.01 0
      vertex -0.00999928 -0.00999928 9
      vertex -0.00999928 -0.00999928 0
    endloop
  endfacet
  facet normal 0 -1 0
    outer loop
      vertex -0.00999928 80.01 0
      vertex 120.01 80.01 9
      vertex -0.00999928 80.01 9
    endloop
  endfacet
  facet normal 0 -1 -0
    outer loop
      vertex 120.01 80.01 9
      vertex -0.00999928 80.01 0
      vertex 120.01 80.01 0
    endloop
  endfacet
  facet normal 0 1 -0
    outer loop
      vertex 120.01 -0.00999928 0
      vertex -0.00999928 -0.00999928 9
      vertex 120.01 -0.00999928 9
    endloop
  endfacet
  facet normal 0 1 0
    outer loop
      vertex -0.00999928 -0.00999928 9
      vertex 120.01 -0.00999928 0
      vertex -0.00999928 -0.00999928 0
    endloop
  endfacet
endsolid OpenSCAD_Model
