<?xml version="1.0" standalone="no"?>
<!DOCTYPE svg PUBLIC "-//W3C//DTD SVG 20010904//EN"
 "http://www.w3.org/TR/2001/REC-SVG-20010904/DTD/svg10.dtd">
<svg version="1.0" xmlns="http://www.w3.org/2000/svg"
 width="1100.000000pt" height="1330.000000pt" viewBox="0 0 1100.000000 1330.000000"
 preserveAspectRatio="xMidYMid meet">
<metadata>
Created by potrace 1.16, written by Peter Selinger 2001-2019
</metadata>
<g transform="translate(0.000000,1330.000000) scale(0.100000,-0.100000)"
fill="#000000" stroke="none">
<path d="M5474 12873 c-12 -2 -30 -14 -41 -26 -25 -28 -263 -461 -263 -479 0
-10 -31 -13 -142 -14 -97 0 -170 -6 -228 -18 -349 -72 -736 -208 -1048 -368
-593 -303 -1127 -779 -1497 -1336 -48 -73 -75 -88 -102 -61 -22 22 -90 13
-135 -16 -109 -72 -422 -394 -581 -598 -186 -237 -372 -563 -462 -810 -122
-335 -185 -674 -206 -1109 -13 -275 -4 -417 46 -690 42 -226 42 -228 12 -228
-17 0 -32 16 -64 68 -88 144 -137 271 -183 475 -42 184 -60 210 -136 210 -62
0 -88 -27 -111 -116 -16 -62 -18 -114 -18 -382 0 -328 6 -400 51 -605 50 -226
131 -446 253 -690 71 -143 209 -382 253 -439 26 -34 24 -71 -4 -71 -44 0 -231
163 -298 260 -72 105 -126 138 -193 119 -64 -17 -72 -36 -72 -173 1 -274 111
-584 293 -826 95 -125 296 -323 407 -401 154 -108 387 -232 578 -308 48 -20
57 -27 57 -48 0 -24 -1 -24 -72 -18 -40 4 -142 18 -227 31 -85 13 -169 22
-187 18 -56 -10 -82 -60 -64 -126 19 -66 316 -357 505 -495 313 -227 787 -415
1383 -549 111 -25 122 -30 122 -50 0 -15 -8 -23 -27 -28 -16 -4 -210 -13 -433
-21 -223 -8 -417 -17 -432 -21 -42 -10 -61 -38 -61 -91 0 -45 2 -50 64 -106
85 -77 264 -211 405 -303 63 -41 116 -74 118 -74 3 0 42 -23 88 -52 119 -74
479 -256 648 -328 407 -173 672 -247 1195 -334 246 -41 453 -66 546 -66 l67 0
-6 -132 c-4 -108 -8 -135 -21 -142 -39 -23 -145 -135 -166 -177 -73 -142 -73
-317 0 -459 28 -55 135 -161 190 -188 69 -34 146 -52 225 -52 132 0 241 44
332 134 145 142 181 365 90 553 -23 48 -130 164 -173 189 -13 7 -17 34 -21
142 l-6 132 67 0 c93 0 300 25 546 66 544 90 820 169 1260 362 110 48 465 230
575 295 253 149 484 311 619 434 62 56 64 61 64 106 0 53 -19 81 -61 91 -15 4
-209 13 -432 21 -223 8 -417 17 -432 21 -20 5 -28 13 -28 28 0 20 11 25 123
50 595 134 1069 322 1382 549 189 138 486 429 505 495 18 66 -8 116 -64 126
-18 4 -102 -5 -187 -18 -85 -13 -187 -27 -226 -31 -72 -6 -73 -6 -73 18 0 21
9 28 58 48 190 76 423 200 577 308 111 78 312 276 407 401 182 242 292 552
293 826 0 137 -8 156 -72 173 -67 19 -121 -14 -193 -119 -67 -97 -254 -260
-298 -260 -28 0 -30 37 -4 71 44 57 182 296 253 439 122 244 203 464 253 690
45 205 51 277 51 605 0 268 -2 320 -18 382 -23 89 -49 116 -111 116 -76 0 -94
-26 -136 -210 -46 -204 -95 -331 -183 -475 -32 -52 -47 -68 -64 -68 -30 0 -30
2 12 228 50 273 59 415 46 690 -17 350 -57 620 -135 889 -105 366 -286 715
-533 1031 -146 186 -450 502 -567 590 -47 35 -92 44 -134 27 -57 -24 -66 -20
-117 57 -274 412 -655 798 -1065 1079 -379 259 -810 455 -1265 574 -229 60
-289 69 -442 69 -109 1 -143 4 -143 14 0 18 -249 468 -268 485 -20 17 -58 25
-88 20z m62 -111 c6 -4 61 -98 123 -209 l111 -202 0 -4545 0 -4546 63 0 c92 0
161 24 246 85 41 30 98 33 132 7 13 -10 32 -22 42 -25 30 -11 71 -114 74 -187
3 -56 0 -72 -24 -115 -15 -27 -48 -64 -73 -83 -42 -32 -47 -34 -115 -30 -54 2
-78 9 -103 27 -44 31 -142 61 -200 61 -35 0 -61 -8 -102 -33 l-55 -33 0 -825
c0 -814 1 -825 20 -844 30 -29 92 -75 102 -75 17 0 62 -55 90 -110 26 -51 28
-63 28 -175 0 -114 -2 -123 -31 -185 -39 -82 -101 -144 -184 -184 -61 -29 -72
-31 -180 -31 -105 0 -120 2 -175 28 -79 37 -156 114 -190 190 -25 55 -27 67
-23 171 3 96 8 120 32 173 31 68 109 150 169 179 l34 16 6 196 c11 300 8 1427
-2 1455 -14 37 -108 87 -164 87 -57 0 -155 -30 -198 -61 -34 -24 -124 -37
-173 -25 -36 9 -94 62 -117 107 -42 84 -12 228 66 307 57 57 97 58 178 3 71
-49 144 -71 231 -71 l66 0 0 4541 0 4541 118 214 c104 190 120 214 142 214 14
0 30 -4 36 -8z m-420 -492 c37 -14 53 -38 54 -77 0 -50 -34 -62 -300 -113
-514 -98 -931 -270 -1375 -571 -435 -294 -761 -619 -1032 -1029 -202 -306
-379 -720 -477 -1115 -72 -290 -86 -413 -93 -821 -9 -519 22 -758 147 -1149
75 -233 211 -539 323 -724 31 -52 57 -102 57 -113 0 -10 5 -18 10 -18 6 0 10
-7 10 -15 0 -8 5 -15 10 -15 6 0 10 -7 10 -15 0 -8 5 -15 10 -15 6 0 10 -5 10
-11 0 -6 38 -61 84 -123 464 -618 1133 -1108 1830 -1341 165 -55 290 -85 496
-120 191 -32 220 -40 254 -66 20 -16 26 -29 26 -59 0 -61 -20 -74 -103 -66
-85 8 -377 66 -533 106 -955 246 -1746 822 -2262 1647 -70 111 -152 260 -152
276 0 6 -27 71 -61 142 -71 152 -127 296 -176 450 -41 130 -116 433 -138 560
-47 262 -46 1028 1 1299 52 306 204 748 359 1044 518 992 1410 1703 2498 1991
240 63 443 87 513 61z m1108 -20 c307 -63 682 -197 984 -352 543 -277 1016
-682 1377 -1177 33 -45 75 -99 93 -119 40 -45 144 -217 223 -367 157 -298 310
-741 363 -1051 47 -272 48 -1057 1 -1319 -22 -127 -97 -430 -138 -560 -83
-261 -215 -553 -358 -790 -377 -627 -891 -1106 -1528 -1425 -333 -166 -646
-271 -1063 -354 -204 -41 -278 -51 -313 -42 -25 6 -26 10 -23 63 3 52 6 59 34
75 17 10 107 31 210 49 234 40 353 68 520 124 698 233 1366 723 1831 1343 275
365 480 801 599 1272 73 287 88 468 81 924 -7 419 -21 540 -93 830 -53 214
-106 368 -222 649 -8 20 -19 37 -24 37 -4 0 -8 7 -8 15 0 20 -32 85 -42 85 -4
0 -8 9 -8 20 0 10 -8 27 -18 37 -10 10 -53 77 -96 148 -267 450 -624 821
-1101 1144 -445 301 -862 474 -1375 571 -163 31 -209 42 -262 62 -24 9 -28 16
-28 52 0 49 7 61 40 76 36 15 228 4 344 -20z m-1477 -886 c56 -28 70 -66 92
-257 24 -202 34 -240 66 -261 13 -9 68 -33 122 -55 l98 -39 3 -431 2 -431 -24
0 c-14 0 -77 23 -141 50 -182 80 -251 95 -440 95 -137 0 -171 -3 -239 -23
-289 -84 -502 -272 -642 -567 -24 -50 -50 -120 -58 -155 -21 -88 -21 -381 -1
-467 18 -75 88 -217 144 -293 52 -69 180 -199 246 -250 187 -144 430 -212 645
-181 106 16 184 40 343 107 71 30 137 54 148 54 19 0 19 -16 19 -705 l0 -705
-30 0 c-38 0 -69 42 -174 230 -114 203 -87 184 -273 190 -87 3 -219 4 -293 2
l-135 -3 -80 -167 c-96 -199 -138 -252 -202 -252 -66 0 -373 96 -405 127 -50
48 -38 143 54 422 l30 94 -33 26 c-19 14 -97 80 -174 146 -230 197 -247 208
-303 193 -20 -6 -110 -39 -199 -74 -197 -78 -219 -80 -266 -21 -92 113 -217
334 -217 384 0 24 19 43 123 125 192 153 257 222 257 275 0 12 -13 73 -29 136
-17 62 -35 163 -41 223 -7 60 -18 119 -26 131 -15 23 -84 48 -329 116 l-120
33 -3 84 c-5 121 15 297 41 382 l23 73 69 -1 c39 0 146 -2 238 -3 136 -2 173
1 191 13 23 14 266 415 288 473 11 28 5 39 -99 199 -132 204 -133 205 -133
243 0 24 16 45 82 111 45 45 117 108 160 141 71 53 84 59 126 59 26 -1 57 -6
69 -13 12 -7 76 -61 143 -122 175 -158 184 -162 306 -124 90 28 345 124 394
149 36 18 39 23 49 87 6 37 18 125 26 196 29 243 51 259 332 253 113 -3 150
-8 180 -22z m1286 -549 c36 -30 83 -75 106 -101 67 -77 60 -101 -89 -313 -66
-93 -90 -121 -107 -121 l-23 0 0 295 0 295 24 0 c15 0 50 -21 89 -55z m-3913
-350 c0 -23 -21 -76 -59 -154 -160 -317 -281 -674 -355 -1045 -57 -279 -61
-333 -60 -751 1 -488 14 -623 89 -935 101 -415 266 -811 478 -1147 43 -66 77
-127 77 -134 0 -8 9 -20 20 -27 11 -7 20 -18 20 -26 0 -38 269 -355 443 -523
452 -434 948 -737 1543 -943 227 -79 421 -119 724 -149 78 -8 108 -16 118 -28
9 -13 12 -155 10 -653 l-3 -635 -28 -3 c-21 -3 -55 13 -130 61 -136 85 -153
90 -208 65 -98 -43 -179 -163 -179 -264 0 -56 30 -167 54 -199 9 -11 16 -27
16 -36 0 -21 54 -74 106 -105 l41 -24 134 45 c115 38 145 45 216 45 77 0 83
-1 88 -22 3 -13 4 -293 3 -623 l-3 -600 -64 -3 c-183 -9 -865 105 -1191 199
-509 146 -1171 478 -1601 803 -155 117 -169 131 -176 170 l-5 34 48 6 c27 3
182 8 344 11 162 3 338 11 390 16 148 16 440 95 440 119 0 11 -26 20 -57 20
-34 0 -563 121 -723 166 -437 122 -801 283 -1055 467 -164 119 -403 347 -438
416 -19 38 -22 71 -7 71 5 0 78 -11 162 -25 227 -37 642 -53 757 -29 22 5 23
6 5 19 -11 8 -28 15 -38 15 -19 0 -127 41 -396 148 -246 97 -465 212 -635 331
-112 78 -283 247 -375 369 -75 100 -180 284 -180 315 0 9 -13 55 -29 104 -42
126 -62 232 -68 361 l-6 112 30 0 c32 0 51 -17 100 -90 88 -130 340 -326 510
-396 60 -24 117 -31 128 -15 6 11 -33 81 -45 81 -12 0 -172 223 -242 335 -87
142 -188 332 -188 355 0 11 -4 20 -10 20 -5 0 -10 11 -10 24 0 13 -3 26 -8 28
-4 2 -33 68 -64 148 -152 392 -192 621 -186 1055 l3 220 27 3 c34 4 41 42 8
42 -16 0 -20 7 -20 34 0 49 9 66 34 66 33 -1 50 -36 75 -150 39 -178 97 -328
177 -461 19 -31 34 -63 34 -70 0 -19 136 -179 188 -223 44 -36 72 -46 72 -24
0 6 -24 135 -54 287 -93 470 -103 581 -87 913 23 445 87 773 216 1106 162 414
465 843 850 1204 126 118 152 138 181 138 21 0 24 -5 24 -35z m6850 3 c17 -12
30 -28 30 -35 0 -7 5 -13 11 -13 29 0 316 -294 446 -457 37 -46 70 -83 75 -83
4 0 8 -7 8 -15 0 -8 7 -15 15 -15 8 0 15 -9 15 -19 0 -11 11 -28 24 -38 36
-27 158 -220 237 -375 206 -406 302 -800 330 -1356 12 -233 7 -385 -17 -552
-22 -153 -113 -611 -126 -637 -6 -13 -9 -26 -5 -29 36 -36 250 209 346 397 49
97 115 281 127 358 4 23 10 41 15 41 5 0 9 17 9 39 0 57 18 101 42 101 56 0
67 -68 68 -396 0 -262 -11 -395 -46 -572 -76 -383 -291 -843 -585 -1252 -53
-74 -104 -150 -113 -167 l-17 -33 33 0 c132 1 487 253 608 430 48 71 62 82 97
78 28 -3 28 -4 31 -78 10 -243 -106 -571 -286 -810 -94 -124 -265 -293 -377
-371 -175 -122 -392 -235 -650 -337 -71 -28 -190 -75 -264 -105 -74 -29 -136
-57 -138 -63 -6 -17 224 -24 422 -13 93 5 239 20 323 34 190 31 182 31 182 -3
0 -51 -270 -317 -465 -459 -98 -71 -186 -123 -324 -192 -308 -155 -593 -249
-1101 -366 -290 -66 -374 -86 -379 -91 -7 -6 27 -34 54 -44 63 -24 268 -69
355 -79 52 -5 223 -13 380 -16 157 -3 315 -8 353 -11 61 -6 67 -8 67 -28 0
-25 -86 -101 -245 -218 -419 -307 -1070 -628 -1555 -767 -313 -90 -966 -201
-1182 -201 l-68 0 0 625 0 625 83 0 c71 0 101 -6 216 -45 l134 -45 41 25 c23
13 50 33 62 43 113 97 163 333 90 419 -82 96 -107 119 -150 139 -60 28 -75 23
-204 -58 -72 -46 -100 -58 -125 -56 l-32 3 -3 639 c-1 352 1 643 6 648 4 4 55
13 112 18 452 47 760 135 1185 339 996 479 1732 1310 2050 2314 81 259 134
503 157 726 16 166 16 869 0 996 -32 245 -112 579 -202 840 -53 152 -129 337
-145 350 -19 15 -65 112 -65 135 0 11 -3 20 -8 20 -9 0 -32 63 -39 108 -5 29
-3 32 21 32 15 0 40 -10 56 -22z m-2949 -391 c37 -56 97 -160 135 -231 l69
-128 261 4 262 5 16 -60 c27 -98 56 -286 59 -381 l2 -89 -190 -57 c-104 -31
-206 -64 -226 -72 -64 -28 -74 -51 -102 -235 -43 -278 -49 -324 -43 -348 7
-26 131 -132 277 -236 100 -71 101 -73 95 -107 -12 -76 -129 -290 -204 -373
-44 -50 -47 -51 -91 -47 -40 4 -258 88 -388 150 l-43 20 0 1144 0 1144 23 0
c17 0 37 -23 88 -103z m1586 -569 c11 -13 34 -48 51 -79 19 -33 43 -61 59 -68
16 -8 82 -17 148 -22 118 -9 120 -9 135 14 8 12 38 56 65 97 l50 75 70 0 c85
-1 138 -23 156 -66 10 -25 9 -50 -1 -129 -16 -118 -14 -121 87 -205 82 -67
109 -74 228 -50 129 25 143 21 182 -45 53 -88 44 -149 -36 -223 -63 -58 -74
-87 -69 -178 7 -115 38 -161 143 -214 97 -49 120 -81 110 -160 -13 -109 -24
-119 -150 -130 -135 -12 -145 -20 -228 -175 l-45 -85 54 -99 c30 -55 54 -111
54 -126 0 -25 -29 -53 -120 -113 -52 -36 -102 -19 -197 67 l-53 48 -111 -37
c-149 -50 -165 -65 -190 -180 -26 -117 -34 -125 -146 -125 -46 0 -93 4 -103
10 -20 11 -32 44 -50 133 -7 32 -22 70 -35 86 -32 37 -137 83 -202 89 -49 4
-58 1 -148 -52 -53 -31 -108 -56 -122 -56 -30 0 -163 123 -163 151 0 10 25 61
56 114 l56 97 -33 61 c-91 174 -100 180 -247 192 -53 5 -90 13 -103 24 -37 30
-53 176 -24 218 9 12 43 30 82 43 38 12 78 32 90 45 43 48 94 229 80 286 -5
19 -24 35 -67 58 -33 18 -66 42 -75 54 -24 35 -18 95 18 167 29 59 35 65 67
69 19 1 79 -5 132 -15 129 -23 153 -16 248 75 l73 69 -6 53 c-21 171 -21 183
4 212 28 31 73 45 150 46 46 1 59 -3 76 -21z m-1254 -2046 c9 -9 25 -42 37
-72 41 -106 39 -105 196 -105 l138 0 30 42 c17 23 47 67 66 98 33 54 35 55 80
55 52 0 144 -23 166 -40 17 -15 18 -69 3 -171 -7 -42 -9 -87 -6 -101 7 -28
156 -161 198 -176 17 -7 46 -3 103 14 113 34 157 32 191 -7 31 -38 75 -122 75
-145 0 -9 -38 -53 -85 -98 -97 -92 -95 -86 -70 -241 17 -110 35 -130 154 -170
104 -34 120 -54 103 -131 -16 -79 -47 -143 -74 -153 -13 -5 -65 -13 -116 -19
-52 -5 -102 -16 -116 -26 -14 -8 -50 -61 -81 -116 l-57 -100 51 -74 c43 -62
51 -82 51 -119 0 -41 -4 -48 -64 -105 -45 -44 -72 -62 -90 -62 -17 0 -58 23
-113 65 -56 43 -95 65 -113 65 -60 0 -210 -66 -234 -103 -14 -21 -35 -101 -50
-189 l-7 -38 -134 0 -135 0 0 96 c0 95 0 96 -32 128 -23 23 -68 45 -151 75
l-117 43 -46 -38 c-82 -71 -105 -84 -145 -84 l-39 0 0 741 0 741 37 52 c20 28
64 76 96 107 l60 57 -7 118 c-4 66 -3 125 2 132 14 21 145 71 188 72 27 0 46
-6 57 -18z M6086 3272 c-30 -18 -70 -52 -61 -52 3 0 29 16 58 35 53 36 55 48
3 17z M5338 1184 c-16 -8 -28 -17 -28 -19 0 -11 19 -4 41 15 29 23 24 25 -13
4z M7731 8874 c-80 -21 -148 -62 -213 -126 -229 -228 -165 -610 126 -754 156
-76 326 -65 471 31 132 88 206 224 207 385 2 134 -36 234 -125 328 -122 128
-301 180 -466 136z M6501 6839 c-75 -14 -182 -72 -238 -127 -94 -94 -143 -209
-143 -338 0 -303 294 -534 583 -459 160 41 283 155 338 311 28 81 29 216 0
296 -80 227 -310 362 -540 317z"/>
</g>
</svg>
