<?xml version="1.0" standalone="no"?>
<!DOCTYPE svg PUBLIC "-//W3C//DTD SVG 20010904//EN"
 "http://www.w3.org/TR/2001/REC-SVG-20010904/DTD/svg10.dtd">
<svg version="1.0" xmlns="http://www.w3.org/2000/svg"
 width="1100.000000pt" height="1330.000000pt" viewBox="0 0 1100.000000 1330.000000"
 preserveAspectRatio="xMidYMid meet">
<metadata>
Created by potrace 1.16, written by Peter Selinger 2001-2019
</metadata>
<g transform="translate(0.000000,1330.000000) scale(0.100000,-0.100000)"
fill="#000000" stroke="none">
<path d="M5465 12871 c-11 -5 -27 -17 -36 -27 -17 -20 -253 -449 -261 -473 -3
-11 -36 -14 -153 -16 -204 -3 -365 -38 -708 -155 -373 -126 -677 -277 -987
-489 -410 -281 -791 -667 -1065 -1079 -51 -76 -63 -82 -111 -57 -16 8 -36 15
-44 15 -40 -1 -107 -47 -225 -158 -344 -321 -607 -664 -780 -1017 -209 -424
-300 -807 -326 -1373 -14 -282 -4 -430 46 -703 19 -105 35 -196 35 -204 0 -9
-10 -15 -23 -15 -17 0 -32 16 -64 68 -87 143 -134 264 -177 457 -43 192 -67
230 -142 230 -56 0 -86 -29 -109 -103 -23 -75 -33 -524 -16 -710 30 -319 126
-634 300 -982 71 -143 209 -382 253 -439 26 -34 24 -71 -4 -71 -44 0 -231 164
-298 261 -77 112 -140 146 -207 112 -58 -28 -65 -50 -60 -188 11 -280 116
-566 297 -807 93 -123 294 -322 405 -399 154 -108 387 -232 578 -308 47 -19
57 -27 57 -47 0 -24 -1 -24 -67 -18 -38 3 -139 17 -227 31 -87 13 -173 22
-191 19 -61 -12 -89 -74 -62 -137 30 -71 327 -359 502 -486 310 -225 795 -419
1373 -549 111 -25 122 -30 122 -50 0 -15 -8 -23 -27 -28 -16 -4 -210 -12 -433
-20 -438 -14 -453 -16 -478 -69 -26 -54 -9 -90 76 -165 407 -358 1185 -767
1788 -940 320 -92 969 -202 1190 -202 l71 0 -5 -133 c-4 -108 -8 -134 -21
-141 -39 -23 -145 -135 -166 -176 -74 -146 -74 -313 0 -461 24 -47 132 -156
180 -181 81 -42 146 -58 235 -58 136 0 239 42 333 134 154 152 186 407 73 584
-23 37 -126 140 -157 158 -13 7 -17 33 -21 142 l-5 132 71 0 c221 0 870 110
1190 202 603 173 1381 582 1788 940 85 75 102 111 76 165 -25 53 -40 55 -478
69 -223 8 -417 16 -432 20 -20 5 -28 13 -28 28 0 20 11 25 123 50 577 130
1062 324 1372 549 175 127 472 415 502 486 27 63 -1 125 -62 137 -18 3 -104
-6 -191 -19 -88 -14 -189 -28 -226 -31 -67 -6 -68 -6 -68 18 0 20 10 28 58 47
190 76 423 200 577 308 111 77 312 276 405 399 181 241 286 527 297 807 5 138
-2 160 -60 188 -67 34 -130 0 -207 -112 -67 -97 -254 -261 -298 -261 -28 0
-30 37 -4 71 44 57 182 296 253 439 174 348 270 663 300 982 17 186 7 635 -16
710 -23 74 -53 103 -109 103 -75 0 -99 -38 -142 -230 -43 -193 -90 -314 -177
-457 -32 -52 -47 -68 -64 -68 -13 0 -23 6 -23 15 0 8 16 99 35 204 50 273 60
421 46 703 -12 265 -30 420 -71 628 -93 465 -295 901 -597 1287 -176 226 -522
575 -608 614 -49 23 -62 23 -99 4 -48 -25 -60 -19 -111 57 -274 412 -655 798
-1065 1079 -310 212 -614 363 -987 489 -342 116 -504 152 -706 155 l-147 2
-23 44 c-73 142 -241 440 -256 453 -22 20 -70 28 -96 17z"/>
</g>
</svg>
