<?xml version="1.0" standalone="no"?>
<!DOCTYPE svg PUBLIC "-//W3C//DTD SVG 20010904//EN"
 "http://www.w3.org/TR/2001/REC-SVG-20010904/DTD/svg10.dtd">
<svg version="1.0" xmlns="http://www.w3.org/2000/svg"
 width="1100.000000pt" height="1330.000000pt" viewBox="0 0 1100.000000 1330.000000"
 preserveAspectRatio="xMidYMid meet">
<metadata>
Created by potrace 1.16, written by Peter Selinger 2001-2019
</metadata>
<g transform="translate(0.000000,1330.000000) scale(0.100000,-0.100000)"
fill="#000000" stroke="none">
<path d="M5526 12719 c-16 -82 -7 -107 104 -295 l35 -59 5 -4552 c4 -3510 8
-4555 17 -4564 9 -9 19 -9 42 1 l31 12 0 4540 0 4539 -111 202 c-62 111 -113
203 -114 205 -1 1 -5 -12 -9 -29z M5080 12240 c-24 -29 -34 -32 -180 -56 -659
-109 -1313 -424 -1854 -892 -428 -370 -778 -860 -990 -1385 -106 -264 -201
-591 -227 -791 -12 -90 -15 -96 -36 -96 -20 0 -23 5 -23 39 0 29 -4 40 -19 44
-16 4 -19 -3 -25 -62 -13 -143 -18 -730 -7 -906 13 -206 25 -280 86 -530 79
-324 150 -526 280 -790 499 -1017 1365 -1723 2459 -2005 140 -36 438 -96 522
-105 74 -9 94 6 94 66 0 34 -5 42 -32 59 -43 26 -44 26 -52 -11 l-6 -32 -65 6
c-173 16 -504 97 -737 180 -104 36 -118 44 -118 64 0 20 5 23 38 24 l37 0 -35
16 c-384 177 -596 300 -845 489 -706 534 -1171 1226 -1381 2054 -73 287 -88
468 -81 924 7 419 21 539 93 831 200 806 628 1470 1272 1972 505 395 1015 630
1612 743 172 33 244 51 279 70 38 20 20 110 -22 110 -7 0 -23 -14 -37 -30z
M5840 12193 c0 -38 50 -55 300 -103 514 -98 931 -270 1375 -571 701 -474 1160
-1070 1420 -1843 85 -253 138 -481 167 -721 17 -142 18 -874 1 -990 -12 -80
-10 -112 3 -59 8 34 20 44 52 44 27 0 27 -2 1 -137 -117 -612 -367 -1161 -744
-1633 -515 -644 -1251 -1123 -2015 -1309 -175 -42 -445 -91 -507 -91 -49 0
-53 -2 -53 -24 0 -45 26 -59 94 -51 84 9 382 69 522 105 1094 282 1960 988
2459 2005 130 264 201 466 280 790 80 327 94 462 95 900 0 543 -31 758 -165
1160 -325 973 -1007 1768 -1917 2233 -113 58 -368 172 -384 172 -3 0 1 -7 10
-15 8 -8 21 -15 28 -15 8 0 23 -7 34 -15 10 -8 29 -15 42 -15 12 0 22 -4 22
-9 0 -5 9 -13 20 -16 13 -4 20 -15 20 -31 0 -33 -29 -32 -121 7 -279 117 -633
210 -921 242 l-118 13 0 -23z M4706 11373 c-3 -4 -6 -23 -6 -44 l0 -37 -154
-4 c-144 -3 -156 -5 -178 -25 -28 -27 -48 -29 -88 -8 -17 9 -30 12 -30 8 0 -5
-9 -80 -20 -168 -11 -88 -20 -163 -20 -167 0 -5 21 -8 46 -8 l47 0 -7 -40
c-15 -95 -28 -104 -247 -189 -217 -83 -283 -101 -368 -101 -68 0 -71 1 -71 24
0 13 7 29 15 36 22 18 18 33 -14 50 -16 8 -84 65 -151 125 -113 102 -153 134
-172 135 -5 0 -8 -22 -8 -50 0 -41 -3 -50 -17 -50 -21 0 -124 -78 -207 -157
-57 -54 -59 -55 -105 -50 -25 3 -54 9 -63 12 -13 5 -18 2 -18 -9 0 -25 22 -63
136 -239 80 -124 104 -168 104 -194 l0 -34 45 7 c45 6 45 6 45 -23 0 -30 -30
-86 -187 -349 -59 -98 -100 -156 -121 -171 -44 -29 -127 -37 -329 -31 l-163 5
-6 -23 c-9 -34 -50 -33 -58 1 -4 16 -13 25 -25 25 -27 0 -44 -107 -45 -294
l-1 -150 120 -33 c247 -69 314 -93 329 -116 8 -12 19 -71 26 -131 6 -60 24
-161 41 -223 16 -63 29 -125 29 -139 0 -21 4 -24 40 -24 39 0 40 -1 40 -33 0
-64 -53 -124 -253 -286 -74 -60 -81 -63 -120 -58 -23 3 -52 9 -64 13 -19 5
-23 2 -23 -15 0 -52 188 -364 246 -410 33 -26 37 -25 244 56 91 36 184 68 206
70 52 7 74 -8 279 -183 83 -71 163 -139 179 -152 26 -20 28 -26 23 -66 l-6
-43 46 5 46 5 -5 -34 c-3 -19 -20 -85 -39 -146 -30 -98 -37 -113 -56 -113 -28
0 -37 57 -19 125 11 43 11 93 -1 82 -14 -15 -64 -222 -65 -270 -2 -90 18 -104
226 -167 93 -27 187 -50 209 -50 64 0 106 53 202 253 l80 167 293 -2 293 -3
20 -25 c10 -14 49 -79 86 -145 75 -136 131 -221 162 -249 17 -15 23 -16 36 -6
13 11 15 99 15 716 0 679 -1 704 -19 704 -13 0 -27 -20 -50 -70 -29 -62 -37
-72 -79 -91 -155 -69 -387 -117 -517 -105 -38 3 -105 13 -147 22 -69 15 -78
19 -78 39 0 18 7 24 34 29 46 9 54 32 13 40 -79 15 -222 87 -312 156 -66 51
-194 181 -246 250 -56 76 -126 218 -144 293 -20 86 -20 379 1 467 34 146 152
348 274 471 123 123 257 202 426 251 68 20 102 23 239 23 191 0 252 -14 451
-99 72 -31 136 -56 142 -56 9 0 12 107 10 436 l-3 436 -98 39 c-54 22 -109 46
-122 55 -32 21 -42 59 -65 259 -20 164 -34 219 -61 242 -21 17 -66 33 -73 26z
M5980 10835 c0 -25 -3 -27 -30 -23 l-30 5 0 -289 c0 -158 4 -288 8 -288 10 0
201 270 231 325 42 80 21 123 -119 245 -59 51 -60 52 -60 25z M2084 10476
c-11 -17 -68 -96 -125 -176 -58 -80 -112 -161 -121 -180 -9 -19 -27 -60 -41
-90 -14 -30 -37 -95 -52 -145 -14 -49 -30 -99 -35 -110 -5 -11 -23 -72 -40
-135 -17 -63 -35 -131 -40 -150 -88 -327 -128 -790 -100 -1190 26 -382 33
-460 45 -530 12 -68 21 -108 68 -310 26 -108 138 -439 183 -537 8 -17 14 -37
14 -45 0 -8 4 -18 9 -23 13 -14 111 -207 111 -218 0 -6 10 -24 23 -41 12 -17
33 -53 46 -80 13 -27 32 -59 42 -70 10 -12 48 -68 84 -125 36 -57 93 -136 125
-175 33 -39 68 -82 77 -95 28 -37 148 -173 194 -220 72 -72 239 -226 294 -271
37 -30 79 -65 94 -77 61 -52 90 -73 159 -117 39 -26 72 -51 72 -56 0 -6 9 -10
20 -10 11 0 23 -7 26 -15 7 -17 83 -55 109 -55 9 0 19 -9 22 -20 5 -19 14 -22
101 -34 29 -4 27 -2 -88 74 -838 556 -1402 1356 -1635 2320 -75 314 -88 447
-89 945 -1 428 3 481 60 761 75 374 190 712 358 1053 36 73 66 142 66 152 0
30 -14 28 -36 -5z M8970 10440 c0 -15 -7 -20 -24 -20 -14 0 -28 5 -31 10 -3 6
-10 10 -16 10 -5 0 18 -53 50 -119 154 -306 274 -656 351 -1017 47 -224 60
-350 68 -649 l7 -280 5 194 c4 143 8 195 18 199 6 2 12 10 12 18 0 8 5 14 12
14 6 0 2 9 -10 20 -12 11 -26 20 -32 20 -5 0 -10 18 -10 41 0 31 4 42 18 45
15 5 17 18 14 132 -1 70 -9 163 -17 208 -19 105 -19 144 0 144 8 0 15 7 15 15
0 10 -10 15 -30 15 -26 0 -30 4 -30 28 0 51 -71 300 -149 522 -48 136 -50 150
-17 150 15 0 35 -14 57 -40 19 -22 50 -59 70 -83 20 -23 64 -80 99 -127 35
-47 79 -103 97 -124 18 -22 33 -43 33 -47 0 -4 23 -43 52 -86 55 -82 208 -377
208 -400 0 -7 4 -13 8 -13 7 0 42 -105 42 -128 0 -7 4 -12 9 -12 4 0 18 -33
30 -72 12 -40 29 -91 37 -112 9 -22 19 -58 24 -80 5 -23 14 -61 20 -86 82
-323 117 -897 72 -1170 -32 -190 -50 -288 -67 -365 -45 -194 -63 -350 -46
-383 12 -22 12 -22 48 -3 l36 18 34 169 c118 595 130 705 114 1042 -12 261
-30 416 -71 622 -110 551 -370 1043 -796 1502 -100 107 -297 298 -308 298 -3
0 -6 -9 -6 -20z M5948 10155 c4 -30 1 -35 -17 -35 l-21 0 0 -1114 0 -1114 43
-20 c79 -38 332 -140 371 -151 47 -13 61 -6 115 55 70 80 186 294 197 366 6
34 5 36 -95 107 -146 104 -270 210 -277 236 -6 24 0 70 43 348 21 139 30 174
49 197 30 35 75 52 410 149 l70 21 -13 122 c-14 137 -36 264 -60 351 -14 48
-20 57 -39 57 -19 0 -26 -9 -37 -47 -18 -62 -28 -64 -264 -61 l-188 3 -3 26
c-2 14 4 31 12 39 21 17 20 30 -1 30 -13 0 -39 39 -87 128 -55 103 -202 342
-210 342 -1 0 0 -16 2 -35z M7557 9523 c-4 -3 -7 -23 -7 -44 0 -21 -4 -40 -9
-43 -4 -3 -33 -8 -64 -12 -40 -5 -63 -2 -86 9 -37 19 -37 22 -19 -118 l11 -95
39 6 38 7 0 -44 c0 -40 -5 -48 -70 -112 -38 -37 -89 -77 -112 -87 -50 -23
-162 -27 -253 -8 -55 11 -58 10 -75 -12 -13 -18 -24 -21 -46 -17 -72 14 -69
15 -72 -31 -4 -58 14 -83 88 -123 41 -22 62 -40 66 -56 6 -24 -2 -110 -12
-138 -8 -20 20 -20 36 0 7 8 24 15 38 15 23 0 24 -2 18 -42 -11 -65 -65 -185
-96 -211 -15 -13 -60 -34 -98 -47 -67 -22 -72 -22 -111 -7 l-41 17 0 -43 c1
-63 17 -120 39 -138 13 -11 50 -19 103 -24 123 -10 144 -19 182 -79 51 -79 86
-153 86 -181 0 -23 4 -25 40 -25 38 0 40 -2 40 -31 0 -17 -12 -51 -27 -76
l-26 -45 -59 4 c-51 4 -61 2 -70 -16 -9 -17 -1 -29 64 -93 54 -52 83 -73 101
-73 14 0 69 25 122 56 90 53 99 56 148 52 65 -6 170 -52 202 -89 13 -16 28
-54 35 -86 18 -89 30 -122 50 -133 10 -6 57 -10 103 -10 112 0 120 8 146 125
16 73 25 95 49 116 30 27 198 89 240 89 14 0 48 -21 80 -49 68 -58 92 -71 129
-71 28 0 100 43 160 97 l32 28 -60 109 c-32 60 -59 117 -59 125 0 26 104 203
132 224 17 13 54 22 114 29 146 15 156 23 168 129 10 83 -10 115 -109 164
-105 53 -136 99 -143 214 -5 91 6 120 69 178 82 75 90 137 32 231 -38 62 -66
64 -74 5 -3 -24 -8 -45 -11 -48 -13 -13 -172 -35 -209 -29 -32 5 -39 11 -39
30 0 12 5 26 10 29 15 9 12 45 -3 45 -18 0 -142 104 -163 136 -15 23 -16 35
-4 124 18 135 8 157 -83 190 l-29 10 7 -49 7 -50 -34 -3 c-29 -3 -39 -13 -88
-86 -30 -46 -62 -87 -70 -92 -17 -11 -198 -13 -277 -4 -45 6 -53 10 -53 28 0
12 9 27 20 34 30 18 24 36 -15 50 -26 10 -42 27 -66 70 -49 87 -81 117 -102
95z m417 -650 c160 -44 286 -168 333 -327 17 -57 21 -156 10 -228 l-8 -48 26
10 c14 6 36 10 47 10 18 0 20 -5 15 -39 -9 -72 -66 -171 -136 -241 -75 -75
-159 -123 -252 -145 -66 -15 -204 -20 -271 -9 -33 6 -38 10 -38 35 0 19 6 30
20 34 22 7 27 35 6 35 -32 0 -157 74 -205 122 -152 152 -184 365 -85 561 31
61 125 154 190 189 106 57 236 72 348 41z M9363 8185 c0 -27 2 -38 4 -22 2 15
2 37 0 50 -2 12 -4 0 -4 -28z M850 8075 c0 -32 3 -55 7 -52 7 8 5 98 -2 105
-3 3 -5 -21 -5 -53z M846 7750 c3 -69 12 -172 20 -230 14 -98 98 -543 110
-582 5 -18 58 -26 67 -10 6 8 -16 159 -31 217 -12 46 -33 149 -57 280 -10 50
-21 98 -26 107 -5 9 -9 33 -9 52 0 25 -4 36 -15 36 -20 0 -29 43 -19 88 13 54
7 92 -16 92 -14 0 -20 9 -23 38 -3 20 -3 -19 -1 -88z M460 7670 c0 -63 7 -160
15 -215 8 -55 15 -117 15 -137 0 -21 4 -38 8 -38 5 0 23 -28 41 -62 55 -106
155 -241 212 -286 16 -13 29 -30 29 -38 0 -8 10 -19 23 -24 12 -6 37 -19 55
-30 l32 -20 0 24 c0 14 5 26 12 28 6 2 -10 26 -36 54 -179 185 -294 411 -360
708 -38 167 -45 173 -46 36z M10570 7765 c0 -20 -41 -330 -45 -345 -2 -8 -11
-107 -20 -220 -8 -113 -20 -225 -25 -250 -5 -25 -17 -82 -26 -127 -15 -71 -20
-83 -38 -84 -12 0 -15 -3 -8 -6 16 -6 15 -24 -4 -86 -34 -109 -57 -167 -70
-178 -8 -6 -14 -19 -14 -28 0 -19 -23 -88 -33 -97 -4 -4 -7 -15 -7 -24 0 -9
-8 -25 -19 -34 -10 -9 -21 -32 -24 -51 -3 -19 -22 -59 -41 -88 -20 -30 -36
-61 -36 -70 0 -9 -6 -20 -13 -24 -7 -4 -28 -37 -46 -73 -19 -36 -52 -91 -73
-123 -21 -32 -38 -61 -38 -64 0 -6 -26 -41 -112 -156 -26 -34 -48 -67 -48 -73
0 -5 -8 -19 -18 -30 -46 -49 -52 -67 -52 -146 0 -74 1 -78 23 -78 12 0 38 8
57 18 31 15 35 21 32 53 -3 31 9 52 100 180 364 506 582 1025 627 1493 22 224
10 681 -19 710 -6 6 -10 6 -10 1z M392 7374 c-2 -239 8 -375 44 -552 77 -387
291 -842 591 -1260 57 -79 103 -148 103 -153 0 -14 46 -11 58 4 25 30 24 65
-2 100 -14 19 -26 39 -26 44 0 6 -16 30 -35 53 -19 23 -35 45 -35 48 0 4 -11
20 -25 36 -14 16 -25 35 -25 43 0 7 -7 16 -15 19 -8 3 -23 20 -34 37 -74 116
-103 163 -127 209 -16 29 -36 64 -46 77 -10 13 -18 37 -18 52 0 19 -5 29 -15
29 -8 0 -24 23 -37 53 -12 28 -35 77 -51 107 -16 30 -40 83 -53 117 -13 35
-28 71 -34 80 -32 57 -116 356 -130 466 -7 48 -16 87 -20 87 -4 0 -10 14 -14
32 -3 17 -14 40 -24 51 -15 16 -18 48 -22 226 l-6 206 -2 -211z M6305 7458
c-2 -13 -6 -34 -7 -48 -6 -49 -111 -77 -172 -45 l-29 15 6 -67 c4 -38 7 -85 7
-105 0 -38 0 -38 40 -38 l40 0 0 -40 c0 -37 -7 -48 -82 -128 -45 -48 -90 -88
-100 -90 -10 -2 -32 4 -50 12 -17 9 -33 16 -35 16 -8 0 -2 -1479 7 -1485 22
-13 92 18 146 65 38 33 66 50 83 50 50 0 234 -77 264 -110 25 -29 27 -36 27
-125 l0 -95 135 0 134 0 7 38 c15 88 36 168 50 189 24 37 174 103 234 103 18
0 60 -25 125 -74 l99 -74 36 28 c19 16 55 49 80 74 62 64 61 98 -3 189 -26 38
-47 77 -47 89 0 30 98 196 126 215 14 9 65 20 116 25 51 6 103 14 116 19 27
10 58 74 74 153 17 77 1 97 -103 131 -119 40 -137 60 -154 170 -26 156 -28
148 77 247 l91 88 -28 52 c-72 137 -124 166 -125 70 0 -38 -12 -44 -126 -69
-112 -25 -150 -3 -108 62 10 15 12 25 5 25 -22 0 -191 152 -198 178 -3 14 0
67 8 116 8 50 13 103 11 119 -4 29 -30 51 -74 61 -27 6 -28 5 -28 -39 0 -43
-1 -45 -29 -45 -31 0 -45 -14 -104 -104 -51 -79 -68 -88 -195 -94 -141 -6
-202 2 -202 29 0 10 10 29 22 41 l22 22 -27 11 c-34 14 -50 36 -77 106 -33 84
-74 116 -85 67z m388 -623 c158 -33 293 -154 348 -313 22 -62 28 -167 15 -245
-7 -46 -7 -48 13 -38 11 6 32 11 47 11 25 0 26 -2 21 -39 -16 -120 -150 -289
-277 -348 -93 -44 -161 -58 -270 -56 -120 2 -154 11 -158 44 -2 17 4 27 19 34
34 15 33 32 -2 39 -46 9 -132 61 -184 111 -94 92 -145 210 -145 339 0 181 104
345 266 423 111 53 190 63 307 38z M10578 5808 c-42 -98 -88 -222 -107 -290
-10 -35 -26 -81 -36 -103 -53 -122 -89 -191 -100 -198 -8 -4 -16 -20 -20 -36
-3 -16 -13 -32 -21 -35 -8 -3 -14 -10 -14 -16 0 -20 -44 -70 -62 -70 -12 0
-18 -7 -18 -24 0 -16 -31 -54 -107 -130 -133 -130 -195 -186 -209 -186 -6 0
-19 -9 -29 -20 -20 -22 -71 -50 -92 -50 -7 0 -13 -7 -13 -15 0 -8 -7 -15 -15
-15 -8 0 -24 -9 -35 -20 -11 -11 -29 -20 -40 -20 -11 0 -20 -4 -20 -9 0 -10
-204 -111 -225 -111 -8 0 -15 -3 -15 -8 0 -8 -73 -42 -90 -42 -6 0 -33 -11
-61 -25 -56 -29 -215 -85 -240 -85 -9 0 -24 -8 -33 -19 -9 -10 -43 -26 -75
-35 -32 -9 -67 -26 -78 -39 -27 -29 -37 -89 -23 -133 12 -35 13 -35 54 -29 39
7 115 44 89 45 -7 0 -13 10 -13 23 0 19 18 29 153 81 593 229 824 357 1061
586 255 246 410 531 461 845 16 96 20 245 7 245 -4 0 -20 -28 -34 -62z M455
5784 l7 -65 -33 3 c-26 2 -35 9 -40 28 -14 49 -10 -29 6 -125 36 -223 133
-449 273 -635 94 -124 265 -293 377 -371 216 -151 406 -244 869 -424 94 -36
175 -70 182 -76 7 -6 21 -6 36 0 29 11 46 75 25 95 -19 18 -128 62 -322 131
-27 10 -82 33 -122 51 -39 19 -76 34 -81 34 -6 0 -27 9 -49 19 -21 11 -81 40
-133 66 -125 61 -244 126 -267 146 -10 9 -38 29 -63 44 -81 50 -240 197 -336
310 -65 77 -90 115 -171 252 -67 115 -123 253 -130 320 -5 50 -4 53 17 53 12
0 41 -17 65 -38 23 -20 55 -44 71 -52 15 -8 37 -24 48 -35 12 -11 49 -29 84
-40 34 -11 62 -25 62 -31 0 -7 20 -14 45 -16 25 -2 45 -2 45 -1 0 1 -32 23
-71 48 -151 98 -280 214 -350 318 -22 31 -42 57 -46 57 -3 0 -2 -30 2 -66z
M3490 5157 c16 -16 85 -57 98 -57 8 0 -18 18 -73 50 -22 13 -33 16 -25 7z
M5087 4571 l-28 -50 1 -501 c0 -491 0 -500 -19 -500 -21 0 -73 20 -81 31 -3 4
-47 12 -99 18 -78 9 -96 8 -108 -4 -8 -8 -26 -18 -41 -21 -30 -7 -152 -121
-152 -142 0 -7 -9 -25 -20 -40 -17 -23 -22 -49 -27 -150 -5 -109 -4 -129 17
-194 20 -63 31 -81 84 -133 72 -71 130 -95 158 -66 15 17 14 20 -22 47 -82 62
-140 190 -140 307 0 107 70 220 164 269 66 34 113 23 238 -56 59 -37 115 -66
125 -64 17 3 18 34 18 648 0 637 0 645 -20 648 -15 2 -27 -10 -48 -47z M5845
3925 c0 -571 1 -600 18 -603 10 -2 66 27 125 64 125 79 172 90 238 56 78 -40
164 -162 164 -233 0 -22 4 -26 24 -22 84 16 40 214 -68 309 -61 54 -119 73
-227 75 -74 2 -82 0 -108 -25 -15 -14 -31 -26 -37 -26 -5 0 -18 -12 -29 -27
-33 -44 -45 -53 -71 -53 l-24 0 -3 543 -2 542 0 -600z M9770 4119 c-48 -43
-97 -73 -159 -99 -47 -21 -65 -34 -136 -101 -12 -10 -24 -19 -29 -19 -4 0 -24
-18 -43 -40 -20 -22 -41 -40 -47 -40 -6 0 -17 -9 -24 -20 -7 -11 -18 -20 -25
-20 -7 0 -24 -10 -37 -22 -49 -44 -80 -63 -220 -137 -8 -4 -24 -13 -36 -19
-12 -6 -60 -31 -108 -56 -48 -25 -96 -46 -106 -46 -11 0 -20 -4 -20 -10 0 -5
-7 -10 -15 -10 -8 0 -43 -13 -77 -30 -34 -16 -69 -30 -79 -30 -10 0 -20 -4
-23 -9 -3 -4 -27 -14 -53 -20 -27 -7 -70 -21 -98 -31 -27 -10 -77 -25 -110
-33 -33 -8 -91 -24 -130 -36 -38 -12 -108 -30 -155 -41 -47 -10 -168 -37 -270
-60 -209 -46 -299 -70 -306 -81 -13 -22 -21 -104 -12 -138 l10 -38 46 4 c26 3
67 11 92 18 l45 12 -32 7 c-26 6 -33 13 -33 31 0 12 7 25 15 29 8 3 144 35
302 71 555 127 828 217 1144 376 238 119 389 226 593 419 94 89 206 217 206
235 0 24 -32 17 -70 -16z M1228 4043 c111 -126 274 -274 407 -370 98 -71 187
-124 324 -192 317 -159 589 -249 1146 -376 160 -37 307 -73 329 -80 21 -7 44
-11 51 -9 18 7 39 84 26 97 -9 9 -236 69 -331 87 -90 17 -305 70 -510 126 -30
8 -59 19 -65 25 -5 5 -18 9 -30 9 -43 0 -355 115 -355 131 0 5 -8 9 -19 9 -19
0 -104 36 -151 64 -14 8 -54 29 -90 46 -36 16 -78 39 -95 50 -16 10 -45 27
-63 36 -19 9 -36 23 -39 31 -3 7 -10 13 -17 13 -6 0 -19 9 -29 20 -9 11 -22
20 -29 20 -7 0 -32 18 -55 39 -23 22 -51 42 -62 46 -11 3 -30 19 -41 35 -11
16 -30 32 -41 35 -11 4 -24 17 -28 29 -5 12 -19 27 -32 33 -48 24 -249 113
-255 113 -3 0 21 -30 54 -67z M6219 3293 c-10 -18 -13 -37 -8 -53 4 -14 7 -51
8 -82 1 -53 -2 -61 -35 -98 -42 -46 -80 -52 -129 -20 -55 37 -150 60 -244 59
-97 -1 -130 -10 -195 -56 -35 -25 -48 -42 -57 -75 -8 -32 -10 -261 -8 -863 4
-765 5 -823 22 -848 18 -28 58 -36 87 -17 13 9 13 11 0 20 -13 8 -15 116 -15
846 l0 838 55 33 c45 27 65 33 112 33 67 0 163 -28 209 -61 24 -17 51 -24 94
-27 56 -4 64 -2 105 30 25 19 58 56 73 83 23 42 27 59 24 106 -3 56 -50 170
-72 176 -6 2 -18 -9 -26 -24z M5028 3081 c-32 -10 -73 -28 -93 -40 -48 -28
-91 -27 -132 5 -32 24 -113 46 -113 30 0 -4 9 -24 19 -45 23 -45 81 -98 117
-107 44 -11 120 2 154 26 45 32 142 60 207 60 44 0 67 -7 111 -31 30 -18 57
-40 59 -50 7 -24 16 -24 36 -1 39 43 14 96 -66 142 -48 27 -60 30 -147 29 -63
0 -114 -6 -152 -18z M5218 2868 c-50 -66 -49 -49 -48 -589 l0 -510 -77 5 c-73
5 -246 30 -513 75 -152 26 -296 58 -343 76 -20 8 -53 15 -72 15 -19 0 -49 6
-67 14 -18 7 -87 30 -153 52 -66 21 -143 48 -172 61 -28 13 -58 23 -65 23 -8
0 -18 4 -23 9 -6 5 -41 21 -80 36 -101 40 -148 60 -255 112 -52 25 -115 56
-140 67 -25 12 -47 23 -50 26 -3 3 -31 19 -62 35 -32 17 -58 33 -58 37 0 4
-10 10 -22 14 -13 3 -45 21 -73 39 -27 17 -70 42 -95 55 -25 12 -47 25 -50 29
-3 3 -22 15 -42 25 -21 11 -38 25 -38 33 0 7 -8 13 -19 13 -24 0 -115 62 -162
110 -29 29 -47 38 -85 43 -27 3 -76 14 -109 25 -33 10 -73 22 -90 26 -29 6
-29 5 15 -34 69 -62 262 -205 374 -278 429 -278 966 -531 1386 -651 319 -92
1013 -209 1181 -199 l54 3 3 618 c2 669 4 656 -50 585z M8685 2833 c-44 -29
-133 -63 -165 -63 -11 0 -28 -9 -37 -20 -10 -11 -24 -20 -33 -20 -8 0 -25 -13
-38 -29 -13 -17 -36 -32 -52 -36 -16 -3 -30 -14 -33 -26 -3 -10 -12 -19 -21
-19 -9 0 -22 -5 -29 -10 -56 -48 -335 -210 -362 -210 -8 0 -20 -9 -27 -20 -7
-11 -19 -20 -26 -20 -7 0 -20 -7 -28 -15 -9 -8 -27 -18 -42 -22 -15 -3 -29 -9
-32 -13 -9 -13 -173 -90 -190 -90 -9 0 -25 -9 -35 -20 -10 -11 -24 -20 -30
-20 -7 0 -59 -20 -116 -45 -57 -25 -114 -45 -126 -45 -12 0 -23 -4 -25 -9 -9
-23 -364 -141 -476 -158 -18 -3 -35 -9 -38 -14 -3 -5 -32 -9 -65 -9 -32 0 -59
-4 -59 -9 0 -10 -28 -17 -185 -41 -66 -11 -160 -26 -210 -34 -110 -19 -162
-20 -168 -3 -3 7 -6 5 -6 -5 -1 -20 -36 -28 -133 -31 -37 -1 -68 -5 -68 -9 0
-5 -18 -8 -40 -8 l-40 0 0 519 c0 339 -4 522 -10 526 -7 4 -9 -184 -8 -567 l3
-573 54 -3 c168 -10 862 107 1181 199 415 119 945 367 1375 643 186 120 435
316 435 342 0 23 -51 15 -95 -13z M5760 1150 c0 -17 9 -63 20 -102 51 -183 -3
-329 -151 -408 -55 -29 -73 -33 -134 -33 -95 0 -165 32 -253 116 -73 70 -129
96 -117 55 30 -96 114 -190 210 -235 54 -25 71 -28 165 -28 97 0 110 2 170 31
156 75 242 239 218 415 -12 88 -63 185 -110 210 -15 8 -18 5 -18 -21z"/>
</g>
</svg>
