<?xml version="1.0" standalone="no"?>
<!DOCTYPE svg PUBLIC "-//W3C//DTD SVG 20010904//EN"
 "http://www.w3.org/TR/2001/REC-SVG-20010904/DTD/svg10.dtd">
<svg version="1.0" xmlns="http://www.w3.org/2000/svg"
 width="1100.000000pt" height="1330.000000pt" viewBox="0 0 1100.000000 1330.000000"
 preserveAspectRatio="xMidYMid meet">
<metadata>
Created by potrace 1.16, written by Peter Selinger 2001-2019
</metadata>
<g transform="translate(0.000000,1330.000000) scale(0.100000,-0.100000)"
fill="#000000" stroke="none">
<path d="M5366 12571 l-126 -229 0 -4541 0 -4541 -75 0 c-73 0 -75 1 -75 24 0
21 5 25 38 28 l37 3 0 640 0 640 -2 -633 -3 -632 -30 0 c-20 0 -63 20 -123 59
-127 81 -153 88 -214 61 -106 -46 -183 -163 -183 -276 0 -33 7 -85 16 -115 26
-87 74 -162 74 -114 0 23 35 18 77 -11 34 -23 46 -25 108 -22 54 2 78 9 103
27 44 31 142 61 199 61 56 0 150 -50 164 -87 10 -28 13 -1155 2 -1455 l-6
-196 -34 -16 c-51 -24 -132 -104 -158 -156 -34 -67 -44 -115 -46 -216 -1 -79
2 -99 25 -151 35 -76 112 -153 191 -190 55 -26 70 -28 175 -28 108 0 119 2
180 31 159 77 245 245 219 430 -15 109 -74 207 -144 240 -17 8 -46 28 -65 46
l-35 31 0 825 0 826 55 33 c41 25 67 33 102 33 58 0 156 -30 200 -61 25 -18
49 -25 103 -27 68 -4 72 -3 121 34 32 23 56 51 63 71 9 25 18 33 37 33 17 0
24 -6 24 -20 0 -24 -21 -70 -32 -70 -4 0 -8 -6 -8 -12 -1 -34 -118 -128 -157
-128 -15 0 -81 18 -147 39 -111 36 -161 44 -253 42 -32 -1 -33 -3 -33 -41 0
-28 4 -40 15 -40 8 0 26 -5 40 -12 l25 -11 0 -519 c0 -285 3 -518 8 -518 4 0
7 233 7 517 l0 518 42 -2 c24 -1 89 -18 147 -37 154 -53 211 -49 305 23 86 65
161 215 161 321 l0 39 -36 -6 c-24 -4 -39 -2 -44 7 -4 7 -10 -6 -14 -34 -6
-40 -10 -46 -32 -46 -23 0 -24 3 -24 63 0 43 -8 81 -25 122 -14 33 -25 66 -25
73 0 6 -9 12 -21 12 -11 0 -32 9 -46 20 -36 28 -92 26 -134 -5 -94 -68 -159
-85 -159 -42 0 19 19 36 92 82 103 65 147 76 199 50 47 -24 79 -55 79 -77 0
-11 7 -18 18 -18 11 0 24 -12 31 -26 6 -15 14 -24 17 -21 10 9 -23 61 -63 99
-21 20 -60 47 -86 58 -42 19 -52 20 -85 9 -54 -18 -260 -149 -234 -149 17 0
22 -6 22 -25 0 -24 -2 -25 -70 -25 l-70 0 0 4546 0 4545 -110 199 c-97 176
-145 250 -163 250 -3 0 -62 -103 -131 -229z m298 -56 l96 -175 0 -4539 c0
-4130 -1 -4539 -16 -4545 -15 -6 -62 -8 -66 -3 -2 1 -5 2052 -8 4557 l-5 4555
-35 59 c-87 147 -109 192 -109 229 -1 33 2 37 23 37 21 0 37 -24 120 -175z
m-676 -9130 c73 -46 92 -63 92 -82 0 -43 -63 -27 -153 38 -61 45 -108 41 -162
-13 -50 -51 -85 -137 -85 -208 0 -46 -2 -50 -24 -50 -27 0 -36 28 -36 109 0
88 77 207 165 255 51 28 100 16 203 -49z m1302 -137 c13 -29 25 -78 27 -108 3
-46 -1 -63 -24 -105 -15 -27 -48 -64 -73 -83 -41 -32 -49 -34 -105 -30 -43 3
-70 10 -94 27 -46 33 -142 61 -209 61 -47 0 -67 -6 -112 -33 l-55 -33 0 -857
1 -857 -28 0 c-19 0 -33 8 -45 27 -17 25 -18 83 -22 848 -2 602 0 831 8 863 9
33 22 50 57 75 65 46 98 55 195 56 94 1 189 -22 244 -59 45 -30 85 -26 123 13
44 45 55 88 40 158 -14 66 -7 89 25 89 20 0 29 -10 47 -52z m-963 -178 c60
-34 83 -63 83 -102 0 -39 -34 -37 -107 7 -48 29 -68 35 -115 35 -66 0 -163
-28 -209 -60 -39 -28 -125 -38 -169 -20 -41 17 -100 84 -100 115 0 21 5 25 31
25 17 0 45 -11 63 -25 40 -31 83 -32 131 -4 66 39 144 58 245 58 87 1 99 -2
147 -29z m507 -1959 c43 -68 58 -131 54 -228 -3 -73 -8 -99 -34 -153 -39 -82
-101 -144 -184 -184 -60 -29 -73 -31 -170 -31 -94 0 -111 3 -165 28 -96 45
-195 155 -195 217 0 38 40 23 106 -40 84 -81 155 -113 249 -113 61 0 79 4 134
33 148 79 202 225 151 408 -26 93 -26 102 5 102 18 0 32 -11 49 -39z M4910
12273 c-189 -20 -579 -135 -860 -254 -924 -390 -1674 -1136 -2061 -2050 -110
-260 -226 -644 -245 -809 -6 -52 -4 -60 10 -60 14 0 17 -9 15 -47 -1 -27 3
-68 10 -92 13 -45 8 -100 -11 -131 -8 -12 -8 -30 0 -63 7 -27 13 -139 14 -269
l1 -223 8 290 c10 399 28 561 90 810 190 755 598 1426 1165 1917 541 468 1194
782 1854 892 137 23 158 29 178 52 12 14 22 29 22 35 0 9 -115 10 -190 2z
M5878 12269 c-27 -10 -31 -17 -43 -76 -5 -26 -2 -34 15 -43 36 -19 108 -37
280 -70 514 -98 931 -270 1375 -571 519 -351 904 -767 1175 -1272 27 -50 50
-87 50 -81 0 17 -79 166 -143 270 -262 424 -616 784 -1072 1093 -445 301 -862
474 -1375 571 -249 47 -290 61 -290 97 l0 25 78 -6 c286 -25 670 -126 987
-260 220 -94 496 -247 710 -395 44 -30 71 -45 61 -33 -10 12 -42 36 -70 54
-28 18 -80 55 -116 82 -35 27 -83 56 -105 66 -22 9 -54 29 -71 43 -16 14 -57
40 -90 58 -32 17 -68 40 -79 49 -11 10 -41 28 -67 40 -27 12 -48 26 -48 31 0
5 -9 9 -20 9 -11 0 -20 5 -20 11 0 20 -35 43 -96 64 -33 11 -68 27 -78 37 -19
17 -281 108 -426 147 -207 57 -458 85 -522 60z M5162 12203 c-3 -50 -37 -63
-302 -113 -514 -98 -931 -270 -1375 -571 -701 -474 -1160 -1070 -1420 -1843
-52 -155 -112 -375 -135 -501 -31 -169 -41 -308 -47 -631 -7 -456 8 -637 81
-924 71 -279 156 -507 286 -765 76 -153 227 -402 236 -392 3 2 -32 62 -77 133
-138 219 -285 539 -369 799 -125 391 -156 630 -147 1149 7 408 21 531 93 821
224 904 723 1612 1509 2144 444 300 860 473 1375 571 276 53 304 64 297 120
l-4 35 -1 -32z M4379 11380 c-56 -10 -92 -31 -107 -66 -18 -37 -15 -50 14 -63
l27 -12 -6 -112 c-3 -62 -12 -132 -20 -157 -12 -40 -18 -46 -48 -50 -26 -4
-35 -10 -37 -28 -4 -28 -38 -46 -224 -116 -171 -64 -271 -96 -305 -96 -15 0
-33 -10 -45 -25 -12 -15 -30 -25 -46 -25 l-27 -1 24 -19 c40 -34 156 -28 283
14 174 57 365 136 391 160 33 30 42 65 67 264 11 89 24 172 29 185 19 48 34
52 202 52 l157 0 -1 46 -2 47 -50 6 c-66 8 -218 6 -276 -4z M3205 10956 c-71
-31 -336 -270 -318 -286 4 -4 29 -13 55 -20 l47 -12 63 60 c85 82 189 162 211
162 15 0 18 8 15 53 -3 59 -18 68 -73 43z M5920 10860 c0 -18 14 -51 35 -82
19 -28 38 -61 41 -74 7 -27 24 -33 24 -8 0 29 -42 159 -58 177 -23 27 -42 21
-42 -13z M4880 10754 c0 -5 89 -46 128 -58 16 -5 22 -3 22 8 0 10 -22 22 -66
36 -69 21 -84 24 -84 14z M8676 10595 c232 -377 336 -592 449 -930 134 -402
165 -617 165 -1160 -1 -438 -15 -573 -95 -900 -79 -324 -150 -526 -280 -790
-499 -1017 -1365 -1723 -2459 -2005 -140 -36 -438 -96 -522 -106 -56 -6 -63
-4 -83 17 -11 12 -21 18 -21 12 0 -7 8 -19 17 -29 23 -22 99 -15 329 31 518
105 934 261 1321 496 63 38 119 69 124 69 5 0 9 5 9 10 0 6 7 10 15 10 8 0 15
5 15 10 0 6 7 10 15 10 8 0 15 5 15 10 0 6 9 10 20 10 11 0 20 7 20 15 0 8 7
15 15 15 8 0 15 5 15 10 0 6 11 10 25 10 20 0 25 -5 25 -25 0 -16 -6 -25 -15
-25 -8 0 -15 -4 -15 -10 0 -5 -9 -10 -20 -10 -11 0 -20 -7 -20 -15 0 -8 -7
-15 -15 -15 -8 0 -15 -4 -15 -10 0 -5 -7 -10 -15 -10 -8 0 -15 -4 -15 -10 0
-5 -7 -10 -15 -10 -8 0 -15 -4 -15 -9 0 -31 -528 -315 -742 -399 -364 -142
-572 -193 -946 -231 -57 -6 -108 -14 -113 -17 -5 -3 -9 -20 -9 -38 0 -29 4
-33 38 -42 l37 -9 6 -95 5 -95 2 85 c1 47 6 91 10 98 6 8 49 16 118 22 219 19
392 55 639 132 322 100 724 295 1020 496 244 165 436 323 640 527 66 66 140
145 165 174 25 30 52 61 61 70 9 9 35 42 59 75 23 32 51 67 62 78 26 26 203
294 250 377 225 406 367 790 453 1232 32 163 43 299 48 574 2 121 3 189 0 150
-2 -38 -6 -77 -10 -85 -3 -8 -6 -70 -7 -138 -1 -93 -4 -125 -15 -131 -10 -6
-12 -19 -7 -46 5 -23 2 -55 -5 -81 -11 -35 -18 -44 -35 -44 -15 0 -24 7 -27
23 -4 20 -4 19 -6 -4 -5 -102 -79 -424 -146 -636 -174 -550 -480 -1062 -879
-1470 -54 -56 -88 -83 -103 -83 -46 0 -26 40 73 142 362 378 677 914 841 1433
41 130 116 433 138 560 47 262 46 1047 -1 1319 -53 310 -206 753 -363 1051
-72 137 -183 320 -218 360 l-26 30 19 -30z m-508 -4912 c-2 -22 -9 -29 -30
-31 -24 -3 -28 0 -28 21 0 13 3 27 7 30 3 4 17 7 30 7 21 0 24 -4 21 -27z
m-98 -88 c0 -20 -5 -25 -25 -25 -20 0 -25 5 -25 25 0 20 5 25 25 25 20 0 25
-5 25 -25z M2062 10490 c-45 -28 -228 -201 -346 -328 -356 -385 -595 -789
-731 -1237 -34 -114 -86 -353 -100 -462 -7 -52 -6 -53 19 -53 l27 0 -3 -220
c-2 -167 -6 -223 -16 -229 -10 -6 -10 -14 -2 -35 5 -15 11 -46 11 -69 3 -86
17 13 18 124 3 247 63 654 128 864 63 203 96 292 152 405 75 151 146 281 163
300 10 11 18 23 18 28 0 5 6 15 14 21 8 7 30 39 50 72 47 79 147 205 273 347
57 62 142 170 190 238 68 98 92 124 110 124 33 0 30 -27 -11 -108 -168 -333
-325 -862 -378 -1267 -16 -127 -16 -830 0 -996 47 -468 221 -1004 470 -1444
62 -111 204 -326 210 -320 3 3 0 11 -6 17 -7 7 -12 22 -12 35 0 18 6 23 24 23
18 0 33 -15 67 -67 24 -38 46 -70 50 -73 3 -3 42 -50 86 -105 495 -621 1196
-1068 1997 -1275 156 -40 448 -98 533 -106 85 -8 104 5 102 69 l-2 42 -7 -43
c-3 -24 -13 -48 -21 -53 -42 -29 -535 74 -850 177 -922 301 -1657 918 -2137
1794 -23 41 -42 69 -42 63 0 -15 79 -171 98 -191 6 -7 12 -20 12 -28 0 -8 5
-14 10 -14 6 0 10 -11 10 -25 0 -16 6 -25 15 -25 8 0 15 -7 15 -15 0 -8 5 -15
10 -15 6 0 10 -11 10 -25 0 -20 -5 -25 -25 -25 -16 0 -25 6 -25 15 0 8 -4 15
-10 15 -5 0 -10 11 -10 25 0 16 -6 25 -15 25 -8 0 -15 7 -15 15 0 8 -4 15 -9
15 -5 0 -13 10 -17 23 -4 12 -10 24 -15 27 -17 11 -181 343 -233 473 -132 326
-227 699 -257 1006 -17 165 -17 850 -1 976 56 434 203 912 406 1324 67 135 78
171 52 171 -8 0 -16 4 -18 10 -1 5 -18 1 -36 -10z M8885 10499 c-11 -16 4 -59
20 -59 18 0 20 -46 3 -53 -10 -4 -10 -6 0 -6 6 -1 12 -8 12 -16 0 -16 87 -195
95 -195 6 0 -9 40 -35 89 -27 55 -26 81 3 81 17 0 36 -18 71 -66 27 -36 51
-63 54 -60 3 3 -8 24 -24 46 -93 131 -114 165 -114 186 0 17 -10 31 -32 44
-38 23 -44 24 -53 9z M3170 10203 c-14 -7 -34 -13 -45 -13 -15 -1 -50 -53
-149 -221 -70 -121 -139 -227 -153 -236 -21 -14 -54 -15 -259 -10 l-235 5 -9
-24 c-21 -55 -23 -74 -6 -74 23 0 31 -42 31 -157 -1 -56 2 -100 6 -98 3 3 9
37 12 77 4 40 13 96 22 124 l15 51 163 -5 c202 -6 285 2 329 32 23 15 68 80
146 211 149 250 164 280 160 319 -3 30 -4 31 -28 19z M5910 10179 c0 -26 9
-64 21 -89 28 -58 59 -148 59 -172 0 -11 4 -17 9 -14 18 12 -46 277 -74 305
-13 14 -15 10 -15 -30z M9527 9885 c8 -22 19 -38 46 -63 9 -9 17 -20 17 -24 0
-4 36 -62 81 -130 196 -300 337 -648 409 -1008 40 -203 58 -357 71 -608 16
-332 6 -443 -87 -913 -30 -152 -54 -288 -54 -303 0 -19 -7 -29 -25 -36 -14 -5
-25 -16 -25 -24 0 -31 117 -36 165 -6 88 54 255 269 329 423 48 101 56 126 75
249 12 76 21 151 21 168 0 28 3 31 28 28 l27 -3 3 -220 c4 -253 -9 -418 -44
-593 -76 -379 -294 -849 -574 -1237 -116 -160 -146 -208 -131 -213 6 -2 11
-15 11 -28 0 -19 -8 -28 -30 -35 -39 -14 -38 -25 5 -39 56 -18 185 7 265 53
19 11 55 32 80 46 25 14 50 29 55 33 6 5 48 37 95 72 132 99 163 136 201 244
29 80 36 92 56 92 21 0 23 -5 23 -47 0 -149 -58 -362 -145 -538 -80 -163 -187
-306 -331 -445 -237 -229 -463 -353 -1057 -584 -183 -71 -218 -90 -192 -99 27
-11 18 -51 -15 -64 -16 -6 -30 -16 -30 -21 0 -16 131 -25 335 -24 305 1 431
19 507 73 14 11 38 19 52 19 20 0 26 -5 26 -23 0 -16 -31 -53 -102 -123 -226
-220 -374 -326 -627 -453 -315 -159 -588 -248 -1141 -375 -395 -91 -390 -89
-335 -114 22 -10 25 -9 25 7 0 10 7 21 15 25 8 3 144 35 302 71 555 127 828
217 1144 376 270 135 473 287 690 518 92 98 121 142 105 158 -4 4 -84 -5 -179
-20 -193 -31 -468 -49 -606 -40 -85 6 -91 7 -91 28 0 19 18 29 138 75 571 220
811 353 1046 580 255 246 410 531 461 845 20 120 20 245 1 245 -8 0 -16 6 -18
12 -7 21 -54 -17 -96 -79 -98 -144 -342 -336 -519 -409 -137 -56 -136 -22 0
168 363 505 581 1024 626 1492 21 217 10 697 -16 715 -5 3 -12 14 -16 24 -9
25 -32 21 -45 -9 -7 -14 -24 -78 -38 -142 -67 -298 -185 -529 -363 -709 -54
-54 -101 -71 -101 -36 0 9 22 129 49 267 88 445 99 570 82 908 -28 557 -124
949 -331 1358 -81 159 -331 542 -303 465z M6457 9723 l-189 -3 -25 -30 c-14
-17 -34 -30 -45 -30 -30 0 -16 -24 18 -31 39 -9 403 -9 433 0 17 5 28 18 37
51 8 25 14 46 14 48 0 1 -12 1 -27 0 -16 -2 -113 -4 -216 -5z M7470 9524 c-73
-15 -121 -54 -99 -80 6 -8 17 -14 23 -14 6 0 23 -6 37 -14 22 -11 29 -11 44 0
10 8 29 14 42 14 26 0 29 6 36 68 6 48 10 46 -83 26z M8132 9530 c-13 -6 -50
-52 -84 -104 l-60 -95 -107 6 c-58 3 -108 7 -110 9 -2 2 -9 -6 -15 -19 -7 -14
-22 -23 -41 -25 -58 -6 -62 -13 -20 -34 33 -18 64 -22 186 -26 93 -3 153 -1
165 6 10 6 44 48 74 94 49 74 59 83 89 86 l33 3 -7 47 c-4 26 -8 48 -8 48 -11
8 -77 11 -95 4z M7420 9230 c-24 -5 -58 -30 -109 -79 -96 -92 -121 -100 -244
-77 -104 19 -148 22 -167 11 -6 -4 -23 -30 -36 -58 l-23 -51 42 -24 c44 -25
43 -25 73 24 9 16 16 16 69 6 89 -18 203 -15 251 7 61 28 172 135 184 179 12
44 13 72 3 71 -5 -1 -24 -5 -43 -9z M8680 9079 c-47 -10 -101 -18 -120 -19
-27 0 -38 -5 -45 -22 -6 -13 -21 -24 -35 -26 -62 -9 -30 -34 56 -46 39 -6 199
16 212 28 5 5 22 99 18 102 0 1 -39 -7 -86 -17z M9172 9050 c0 -19 2 -27 5
-17 2 9 2 25 0 35 -3 9 -5 1 -5 -18z M9192 8524 c-1 -241 -5 -322 -17 -360 -8
-27 -15 -70 -15 -96 0 -26 -4 -50 -10 -53 -5 -3 -10 -18 -10 -33 0 -15 -8 -34
-18 -43 -10 -8 -24 -42 -31 -75 -93 -431 -168 -656 -326 -979 -415 -850 -1249
-1576 -2159 -1880 -167 -56 -286 -84 -520 -124 -180 -31 -238 -51 -244 -84 -5
-26 75 -22 268 13 623 115 1117 328 1603 691 701 524 1187 1250 1396 2084 79
318 93 457 89 905 l-3 345 -3 -311z M9453 8650 c0 -41 2 -58 4 -37 2 20 2 54
0 75 -2 20 -4 3 -4 -38z M7060 8660 c-13 -25 -53 -61 -77 -70 -8 -3 -25 -32
-38 -65 -31 -75 -45 -88 -128 -115 -59 -19 -97 -47 -97 -72 0 -14 92 -48 104
-39 6 5 35 17 64 27 76 24 106 53 140 137 46 109 72 271 32 197z M2870 8530
c-8 -5 -27 -10 -42 -10 -17 0 -29 -7 -33 -19 -9 -29 -90 -106 -225 -214 -160
-128 -162 -130 -113 -139 21 -4 49 -10 63 -13 22 -6 43 7 131 78 188 151 232
202 245 286 7 42 1 48 -26 31z M8406 8385 c-19 -51 -26 -65 -43 -84 -9 -12
-27 -21 -39 -21 -16 0 -24 -8 -29 -28 -7 -33 -64 -123 -103 -165 -40 -43 -125
-96 -190 -119 -43 -16 -82 -21 -159 -21 -57 0 -103 -3 -103 -7 0 -17 -62 -32
-102 -26 -35 6 -39 5 -29 -8 24 -28 104 -48 216 -53 190 -8 314 36 436 157 79
78 123 164 145 280 16 81 15 137 0 95z M873 8350 c0 -25 2 -35 4 -22 2 12 2
32 0 45 -2 12 -4 2 -4 -23z M8824 8335 c11 -8 27 -15 35 -15 13 1 12 4 -3 15
-11 8 -27 15 -35 15 -13 -1 -12 -4 3 -15z M9371 8328 c0 -9 -4 -25 -7 -35 -5
-17 -5 -17 6 0 6 10 9 25 7 35 -4 15 -5 15 -6 0z M4970 8209 c-242 -103 -387
-132 -557 -111 -58 8 -99 9 -102 3 -11 -17 -100 -24 -146 -11 -64 18 -76 7
-19 -19 67 -32 213 -68 310 -76 140 -12 365 32 526 104 41 19 50 29 77 88 17
36 30 67 29 68 -2 2 -55 -19 -118 -46z M1793 8120 c0 -36 2 -50 4 -32 2 17 2
47 0 65 -2 17 -4 3 -4 -33z M9353 8005 c0 -33 2 -45 4 -27 2 18 2 45 0 60 -2
15 -4 0 -4 -33z M7196 7854 c-11 -8 -32 -14 -47 -14 -23 0 -33 -10 -64 -66
-20 -36 -33 -70 -29 -74 5 -4 28 -11 51 -15 42 -7 42 -6 72 42 31 48 46 97 39
126 -3 14 -5 14 -22 1z M420 7774 c-6 -14 -12 -44 -15 -67 -3 -23 -8 -54 -10
-69 -3 -20 0 -28 10 -28 9 0 19 -10 24 -23 15 -40 41 -221 42 -298 1 -53 3
-64 8 -39 6 33 2 107 -14 303 l-8 87 25 0 c22 0 26 -6 32 -41 22 -137 142
-418 212 -496 33 -36 33 -35 -9 32 -94 148 -165 332 -204 519 -13 67 -22 90
-35 94 -11 2 -18 14 -18 28 0 32 -28 31 -40 -2z M6183 7449 c-98 -42 -105 -64
-27 -98 36 -16 39 -16 83 6 58 30 57 30 64 81 5 40 4 42 -21 42 -15 0 -59 -14
-99 -31z M6820 7425 c-19 -31 -49 -75 -65 -98 l-31 -42 -117 -3 c-97 -2 -119
-6 -124 -18 -3 -9 -24 -24 -46 -34 l-40 -18 24 -13 c17 -10 67 -14 181 -14
180 0 188 3 245 91 62 94 62 94 98 94 l35 0 0 49 c0 56 -7 61 -79 61 -46 0
-48 -1 -81 -55z M3683 7451 c-7 -11 -30 -25 -52 -32 -32 -10 -40 -18 -50 -49
-6 -20 -11 -62 -11 -92 0 -30 -4 -58 -10 -64 -10 -10 29 -136 41 -129 4 3 10
21 13 40 4 20 25 92 47 161 22 69 39 139 37 155 -3 28 -4 29 -15 10z M6181
7186 c-7 -9 -24 -16 -36 -16 -26 0 -132 -99 -188 -176 l-37 -52 36 -17 c19 -9
38 -23 41 -31 8 -20 21 -17 28 7 4 11 42 58 85 103 67 72 79 90 85 129 9 57 4
75 -14 53z M7415 7019 c-38 -10 -86 -22 -105 -26 -19 -3 -47 -19 -62 -35 -14
-15 -34 -28 -43 -28 -14 0 -15 -3 -6 -14 22 -26 109 -29 196 -6 43 11 82 24
86 28 10 11 20 102 11 101 -4 0 -38 -9 -77 -20z M980 6886 c0 -20 -5 -26 -23
-26 -13 0 -28 5 -33 10 -7 7 -9 1 -6 -21 4 -25 0 -36 -17 -49 -21 -15 -21 -17
-6 -30 9 -8 42 -16 73 -18 74 -5 99 14 108 81 7 47 7 47 -22 47 -16 0 -40 7
-52 16 -21 14 -22 14 -22 -10z M7138 6320 c-20 -45 -54 -80 -78 -80 -12 0 -21
-10 -25 -30 -10 -45 -76 -140 -131 -189 -97 -86 -218 -127 -344 -118 -62 5
-78 3 -93 -11 -13 -12 -36 -17 -73 -17 -30 0 -54 -3 -54 -6 0 -8 66 -36 120
-50 61 -17 213 -16 280 0 102 25 180 69 256 145 84 84 128 168 150 287 18 91
14 120 -8 69z M7545 6275 c57 -28 85 -32 85 -11 0 21 -10 25 -76 31 l-59 5 50
-25z M600 6275 c1 -17 39 -81 40 -65 0 8 -9 29 -20 45 -11 17 -20 26 -20 20z
M650 6164 c17 -42 109 -212 189 -344 80 -134 250 -375 258 -366 3 2 -35 60
-84 128 -119 164 -353 558 -353 595 0 7 -4 13 -10 13 -6 0 -6 -9 0 -26z M393
5873 c-21 -8 -16 -76 6 -90 10 -7 33 -42 51 -79 17 -36 33 -64 36 -61 3 3 -4
36 -15 75 -12 38 -21 85 -21 105 0 26 -6 39 -19 47 -11 5 -21 10 -23 9 -2 0
-9 -3 -15 -6z M3210 5563 c1 -8 80 -67 80 -59 0 2 -18 19 -40 36 -22 17 -40
28 -40 23z M3344 5461 c4 -6 16 -16 28 -22 15 -8 18 -8 14 0 -4 6 -16 16 -28
22 -15 8 -18 8 -14 0z M3400 5425 c0 -7 138 -99 233 -154 380 -225 781 -374
1227 -455 200 -36 202 -36 214 -3 8 21 7 30 -3 36 -7 5 -74 18 -149 30 -212
35 -353 69 -527 126 -88 29 -186 56 -218 60 -40 5 -61 13 -65 24 -5 12 -21 16
-62 17 -39 1 -68 9 -102 27 -25 15 -72 36 -105 48 -32 12 -69 29 -83 39 -14 9
-50 28 -80 42 -30 15 -70 38 -89 52 -19 14 -40 26 -47 26 -7 0 -19 6 -26 13
-17 16 -118 78 -118 72z M1140 5382 c0 -18 -6 -22 -29 -22 -16 0 -47 7 -70 15
-39 13 -41 13 -41 -5 0 -17 -7 -20 -43 -20 -24 0 -48 5 -55 12 -9 9 -15 9 -23
1 -7 -7 -2 -16 18 -30 100 -68 264 -91 308 -43 9 10 19 34 22 54 6 36 5 36
-29 36 -19 0 -39 5 -46 12 -9 9 -12 7 -12 -10z M470 5304 c0 -4 25 -55 56
-114 75 -144 188 -292 320 -420 235 -227 475 -360 1047 -580 119 -46 137 -56
137 -75 0 -21 -6 -22 -91 -28 -137 -9 -413 9 -602 39 -92 15 -171 24 -174 20
-4 -4 -2 -16 5 -26 7 -11 12 -26 12 -34 0 -36 286 -307 445 -423 254 -184 618
-345 1055 -467 107 -30 684 -166 703 -166 4 0 7 -13 7 -29 0 -21 -6 -30 -22
-35 -261 -72 -346 -83 -728 -91 -348 -7 -420 -12 -420 -31 0 -8 5 -14 10 -14
6 0 10 -8 10 -17 0 -20 29 -46 179 -159 429 -325 1091 -657 1601 -803 326 -94
1008 -208 1191 -199 l64 3 0 615 0 615 -5 -610 -5 -610 -54 -3 c-168 -10 -862
107 -1181 199 -506 145 -1156 470 -1597 799 -91 67 -113 89 -113 108 0 24 1
25 58 16 82 -13 546 -5 684 11 115 14 304 59 405 97 54 20 60 28 66 88 2 23
-1 25 -50 28 -29 2 -53 7 -53 11 0 11 -31 19 -350 92 -529 121 -808 213 -1121
370 -249 124 -400 233 -616 443 -65 62 -93 97 -93 113 0 29 22 30 81 4 64 -28
141 -39 349 -50 210 -12 465 0 486 21 7 7 14 31 16 53 l3 40 -57 -3 c-50 -2
-58 0 -58 15 0 14 -36 32 -152 77 -594 229 -825 357 -1062 586 -133 128 -245
276 -321 421 -51 99 -65 121 -65 103z M3494 5055 c15 -15 66 -38 66 -30 0 7
-63 45 -73 45 -5 0 -2 -7 7 -15z M3624 4981 c3 -5 24 -18 45 -29 359 -188 698
-312 1021 -376 82 -16 209 -32 310 -40 l65 -5 16 49 15 49 -85 6 c-291 21
-593 96 -923 229 l-83 34 -3 -24 c-3 -19 -9 -24 -30 -24 -15 0 -36 6 -47 13
-11 8 -45 21 -76 31 -31 9 -64 23 -75 30 -59 42 -165 82 -150 57z M5923 4100
c0 -47 2 -66 4 -42 2 23 2 61 0 85 -2 23 -4 4 -4 -43z M5924 3740 c0 -69 1
-97 3 -62 2 34 2 90 0 125 -2 34 -3 6 -3 -63z M3120 3002 c0 -18 3 -20 31 -12
36 11 49 20 28 20 -8 0 -24 3 -36 6 -18 5 -23 2 -23 -14z M7830 3010 c-14 -4
-23 -8 -20 -9 3 -1 20 -5 38 -10 28 -9 32 -7 32 10 0 20 -10 22 -50 9z M7645
2944 c-6 -9 -32 -17 -67 -21 -32 -3 -58 -9 -58 -13 0 -17 119 -54 305 -95 108
-24 246 -34 500 -37 240 -3 252 -2 295 19 25 12 56 33 68 46 l23 24 -318 7
c-401 8 -521 22 -723 81 -8 3 -20 -2 -25 -11z M5145 2900 c-33 -4 -111 -24
-173 -44 -68 -23 -125 -36 -143 -34 -23 4 -29 1 -29 -14 0 -10 -11 -24 -25
-30 -55 -25 -13 -58 73 -58 40 0 270 64 321 89 8 4 20 22 26 40 6 17 16 36 24
40 21 14 -7 18 -74 11z M8781 2854 c-2 -35 -228 -216 -436 -350 -430 -276
-960 -524 -1375 -643 -306 -88 -966 -201 -1173 -201 -50 0 -59 3 -67 23 -10
22 -10 22 -7 -3 2 -23 6 -25 66 -28 183 -9 865 105 1191 199 509 146 1169 477
1601 802 175 132 212 168 206 197 -4 22 -4 22 -6 4z"/>
</g>
</svg>
