<?xml version="1.0" standalone="no"?>
<!DOCTYPE svg PUBLIC "-//W3C//DTD SVG 20010904//EN"
 "http://www.w3.org/TR/2001/REC-SVG-20010904/DTD/svg10.dtd">
<svg version="1.0" xmlns="http://www.w3.org/2000/svg"
 width="1100.000000pt" height="1330.000000pt" viewBox="0 0 1100.000000 1330.000000"
 preserveAspectRatio="xMidYMid meet">
<metadata>
Created by potrace 1.16, written by Peter Selinger 2001-2019
</metadata>
<g transform="translate(0.000000,1330.000000) scale(0.100000,-0.100000)"
fill="#000000" stroke="none">
<path d="M6862 12020 c33 -10 98 -49 98 -59 0 -4 18 -12 40 -18 22 -5 40 -6
40 -2 0 5 -9 9 -20 9 -11 0 -20 5 -20 11 0 28 -85 70 -139 68 l-26 -1 27 -8z
M7120 11881 c0 -5 9 -11 21 -14 16 -4 18 -3 8 9 -13 16 -29 19 -29 5z M7200
11832 c1 -19 20 -33 43 -30 24 3 24 3 -9 20 -19 10 -34 14 -34 10z M7375
11722 c16 -13 67 -33 61 -23 -3 5 -20 14 -38 20 -18 6 -28 8 -23 3z M2073
10475 c-6 -14 -7 -23 -2 -19 13 8 31 44 22 44 -4 0 -13 -11 -20 -25z M8950
10459 c0 -7 -12 -10 -30 -7 -41 6 -38 -2 15 -37 25 -16 45 -33 45 -37 0 -5 20
-35 45 -69 85 -116 118 -182 182 -368 36 -102 68 -202 73 -221 4 -19 19 -78
33 -130 14 -52 29 -120 32 -150 4 -30 11 -59 15 -65 34 -45 55 -420 25 -445
-21 -18 -20 -90 1 -90 13 0 15 -7 10 -37 -7 -37 -25 -396 -30 -593 -4 -157
-32 -387 -67 -545 -4 -22 -13 -62 -18 -90 -6 -27 -19 -84 -30 -125 -11 -41
-27 -104 -37 -140 -9 -36 -22 -78 -30 -95 -12 -27 -20 -57 -38 -136 -5 -24 -3
-25 26 -21 l31 5 -6 -43 c-3 -24 -9 -46 -14 -49 -4 -3 -16 -31 -26 -61 -19
-55 -154 -336 -203 -420 -92 -159 -293 -449 -371 -535 -10 -11 -40 -47 -68
-80 -52 -63 -262 -275 -330 -334 -417 -363 -794 -595 -1268 -782 -300 -119
-558 -183 -851 -214 -145 -15 -150 -14 -182 4 -19 11 -35 17 -36 13 -2 -4 -2
-262 0 -574 2 -437 6 -568 15 -568 14 0 54 35 82 73 11 15 24 27 29 27 5 0 19
9 31 20 28 27 151 38 224 20 59 -14 141 -73 172 -123 64 -106 74 -214 21 -239
-24 -12 -28 -20 -32 -73 -6 -73 5 -105 37 -105 31 0 30 -28 -2 -94 -35 -71
-75 -117 -139 -160 -47 -31 -63 -36 -112 -36 l-57 0 6 34 c3 20 0 41 -6 50
-14 18 -82 42 -157 54 -30 5 -62 11 -70 13 -12 3 -14 -5 -12 -38 l4 -43 -35 0
c-24 0 -46 9 -67 26 -42 36 -52 23 -39 -56 6 -39 9 -256 7 -538 l-3 -472 25
-1 c14 -1 30 0 35 1 6 1 75 11 155 20 129 17 236 33 490 75 116 19 253 47 275
56 11 4 31 10 45 12 132 26 460 137 468 158 2 5 13 9 25 9 12 0 69 20 126 45
57 25 109 45 116 45 6 0 20 9 30 20 10 11 26 20 35 20 17 0 181 77 190 90 3 4
17 10 32 13 15 4 33 14 42 22 8 8 21 15 29 15 8 0 17 7 21 15 3 8 14 15 25 15
11 0 22 4 25 9 3 5 25 18 48 30 74 37 261 152 295 181 7 5 18 10 26 10 7 0 23
11 35 25 12 14 28 25 36 25 8 0 21 8 28 19 7 10 27 25 45 34 17 9 33 22 35 28
2 6 19 14 38 19 27 6 15 8 -55 9 -165 3 -529 20 -567 27 -31 5 -38 11 -38 30
0 21 5 24 36 24 46 0 41 24 -7 28 -19 2 -38 8 -44 13 -5 5 -23 9 -41 9 -17 0
-45 7 -60 15 -16 8 -37 15 -46 15 -9 0 -20 5 -24 11 -4 7 -22 9 -48 5 -22 -3
-69 -9 -103 -12 l-61 -6 -7 57 c-4 31 -3 71 1 88 11 37 36 46 314 108 102 22
223 49 270 59 47 11 117 29 155 41 39 12 97 28 130 36 33 8 83 23 110 33 28
10 71 24 98 31 26 6 50 16 53 20 3 5 13 9 23 9 10 0 45 13 79 30 34 16 69 30
77 30 8 0 15 5 15 10 0 6 9 10 20 10 10 0 58 21 106 46 48 25 96 50 108 56 12
6 28 15 36 19 140 74 171 93 220 137 13 12 30 22 37 22 7 0 18 9 25 20 7 11
18 20 25 20 6 0 20 10 30 23 10 12 36 35 58 52 22 16 56 46 77 66 20 19 47 41
60 47 l23 13 -25 -6 c-61 -12 -425 -26 -527 -20 -111 7 -113 7 -113 31 0 13 4
24 9 24 10 0 24 30 17 38 -3 2 -20 -5 -39 -17 -21 -13 -51 -21 -76 -21 -36 0
-43 4 -52 27 -14 36 -2 103 24 130 11 12 45 30 76 39 31 9 63 22 71 28 8 7 24
16 35 19 59 16 200 69 244 92 28 14 55 25 62 25 24 0 329 150 329 161 0 5 9 9
20 9 11 0 29 9 40 20 11 11 25 20 32 20 6 0 26 11 44 25 18 14 37 25 42 25 4
0 19 11 32 25 13 14 28 25 34 25 6 0 31 18 56 40 68 60 270 262 270 270 0 3
16 24 35 46 19 21 35 45 35 52 0 7 6 15 14 18 8 3 18 19 21 35 4 16 12 32 20
36 23 14 108 208 148 336 l24 78 -41 -39 c-182 -176 -436 -322 -557 -322 -34
0 -39 3 -39 24 0 13 7 26 15 30 8 3 15 12 15 21 0 20 -5 19 -38 -5 -15 -11
-44 -23 -65 -27 l-37 -6 0 79 c0 81 6 99 52 148 10 11 18 25 18 30 0 6 22 39
48 73 86 115 112 150 112 156 0 3 17 32 38 64 21 32 54 87 73 123 18 36 39 69
46 73 7 4 13 15 13 24 0 9 15 39 34 67 18 28 39 70 46 94 7 23 19 47 27 53 7
6 13 18 13 25 0 14 3 22 33 82 9 19 17 40 17 48 0 8 6 25 14 37 8 12 23 51 35
87 11 36 31 99 45 140 13 41 29 104 36 140 6 36 16 81 21 100 8 35 24 203 32
348 4 65 3 72 -14 72 -16 0 -19 8 -19 45 0 33 4 45 15 45 8 0 15 5 15 10 0 6
8 10 18 11 10 0 12 3 5 6 -8 3 -13 24 -13 56 0 68 9 97 29 98 11 0 9 3 -6 9
-13 5 -23 14 -23 20 0 29 -18 -4 -23 -42 -3 -24 -13 -72 -22 -108 -9 -36 -19
-78 -22 -95 -3 -16 -9 -34 -13 -40 -15 -18 1 -65 21 -65 29 0 24 -37 -16 -124
-42 -93 -96 -176 -180 -276 -102 -122 -151 -160 -208 -160 -37 0 -38 1 -37 33
3 48 2 49 -24 32 -14 -9 -37 -15 -53 -13 -28 3 -28 4 -27 68 0 65 19 184 49
315 17 77 36 176 67 365 45 273 10 847 -72 1170 -6 25 -15 63 -20 86 -5 22
-15 58 -24 80 -8 21 -25 72 -37 112 -12 39 -26 72 -30 72 -5 0 -9 5 -9 12 0
23 -35 128 -42 128 -4 0 -8 6 -8 13 0 23 -153 318 -208 400 -29 43 -52 82 -52
86 0 4 -15 25 -33 47 -18 21 -62 77 -97 124 -85 113 -122 158 -202 241 -38 38
-68 73 -68 78 0 4 -27 41 -60 82 -33 40 -70 97 -82 126 -20 49 -38 69 -38 42z
m300 -3285 c0 -8 -5 -35 -11 -60 -10 -37 -15 -44 -35 -44 -19 0 -24 5 -24 27
0 50 22 93 47 93 14 0 23 -6 23 -16z M1779 10079 c-41 -45 -79 -87 -85 -93
-109 -115 -394 -527 -419 -607 -4 -13 -18 -40 -30 -59 -12 -19 -35 -63 -51
-98 -28 -62 -30 -63 -61 -58 -27 4 -33 1 -33 -13 0 -10 -11 -23 -24 -29 -17
-7 -25 -22 -30 -53 -4 -23 -15 -54 -24 -68 -19 -27 -25 -46 -67 -196 -56 -204
-92 -449 -102 -696 -8 -211 -6 -311 9 -320 6 -4 13 -33 15 -66 6 -81 11 -103
27 -103 9 0 16 -16 20 -42 15 -113 19 -134 27 -142 5 -6 9 -24 9 -40 0 -27 9
-71 55 -262 8 -33 18 -93 21 -132 6 -66 5 -72 -12 -72 -10 0 -26 -4 -34 -10
-12 -7 -11 -12 5 -31 11 -12 30 -25 43 -30 16 -6 22 -17 22 -37 0 -40 -28 -62
-78 -62 l-42 0 0 43 c0 23 -7 50 -14 59 -11 15 -15 16 -32 3 -10 -8 -26 -15
-35 -15 -25 0 -79 30 -79 45 0 7 -13 24 -29 37 -56 44 -155 178 -211 283 -18
33 -36 62 -40 65 -4 3 -10 41 -14 85 -4 44 -12 83 -18 86 -6 4 -8 22 -6 40 3
21 0 38 -8 47 -16 15 -19 92 -4 92 6 0 9 30 8 73 -1 40 -3 55 -5 35 -4 -33 -8
-38 -29 -38 -28 0 -26 21 -24 -300 1 -196 3 -217 20 -242 12 -16 20 -43 20
-67 0 -22 7 -46 15 -55 9 -8 15 -28 14 -43 -1 -38 116 -431 141 -476 6 -9 21
-45 34 -80 13 -34 37 -87 53 -117 16 -30 39 -79 51 -107 13 -30 29 -53 37 -53
10 0 15 -10 15 -29 0 -15 8 -39 18 -52 10 -13 30 -48 46 -77 24 -46 50 -89
127 -209 12 -18 25 -33 30 -33 5 0 9 -6 9 -12 0 -7 14 -29 30 -48 16 -19 30
-38 30 -42 0 -3 16 -25 35 -48 19 -23 35 -47 35 -53 0 -7 9 -23 20 -37 22 -28
26 -90 8 -108 -7 -7 -21 -12 -32 -12 -21 -1 -21 -1 -2 -15 11 -8 28 -15 38
-15 14 0 18 -8 18 -34 0 -45 -20 -59 -91 -64 l-59 -4 0 38 c-1 35 -18 74 -33
74 -3 0 -34 13 -69 29 -35 16 -75 33 -91 36 -15 4 -30 11 -33 16 -3 5 -15 9
-28 9 -35 0 -115 30 -129 48 -7 10 -26 25 -42 34 -111 62 -167 140 -184 256
-5 31 -9 45 -10 30 -1 -24 -5 -28 -32 -28 -31 0 -31 -1 -24 -37 3 -21 15 -45
26 -53 27 -21 54 -76 69 -140 18 -81 75 -213 133 -313 81 -137 106 -175 171
-252 96 -113 255 -260 336 -310 25 -15 53 -35 63 -44 23 -20 142 -85 267 -146
52 -26 112 -55 133 -66 22 -10 43 -19 49 -19 5 0 42 -15 81 -34 40 -18 95 -41
122 -51 198 -70 306 -115 317 -130 4 -5 8 -27 8 -48 0 -31 -4 -40 -20 -44 -28
-7 -25 -23 5 -23 23 0 25 -4 25 -40 0 -33 -4 -42 -22 -49 -61 -22 -565 -19
-723 4 l-40 6 33 -17 c19 -10 38 -27 42 -40 5 -12 18 -25 29 -29 11 -3 30 -19
41 -35 11 -16 30 -32 41 -35 11 -4 39 -24 62 -46 23 -21 48 -39 55 -39 7 0 20
-9 29 -20 10 -11 23 -20 29 -20 7 0 14 -6 17 -13 3 -8 20 -22 39 -31 18 -9 47
-26 63 -36 17 -11 59 -34 95 -50 36 -17 76 -38 90 -46 47 -28 132 -64 151 -64
11 0 19 -4 19 -9 0 -16 312 -131 355 -131 12 0 25 -4 30 -9 10 -10 35 -17 215
-65 114 -30 298 -74 360 -86 43 -8 211 -49 293 -71 31 -8 37 -14 37 -37 0 -45
-11 -69 -33 -80 -21 -10 -21 -11 6 -11 25 -1 27 -4 27 -40 0 -22 -6 -43 -12
-48 -27 -16 -118 -45 -253 -79 -139 -35 -142 -36 -480 -47 -187 -7 -325 -13
-307 -15 31 -3 58 -20 101 -63 22 -22 121 -89 132 -89 4 0 20 -11 35 -25 15
-14 38 -28 51 -31 13 -4 23 -9 23 -13 0 -4 21 -18 48 -31 26 -12 70 -37 97
-55 28 -18 60 -36 72 -39 13 -4 23 -10 23 -14 0 -4 26 -20 58 -37 31 -16 59
-32 62 -35 3 -3 25 -14 50 -26 25 -11 88 -42 140 -67 107 -52 154 -72 255
-112 39 -15 74 -31 80 -36 5 -5 15 -9 23 -9 7 0 37 -10 65 -23 29 -13 106 -40
172 -61 66 -22 134 -45 151 -52 17 -7 53 -15 80 -19 27 -4 60 -11 74 -16 37
-13 199 -48 330 -70 239 -40 507 -79 547 -79 l43 0 2 519 3 519 -35 -6 c-19
-3 -79 -20 -133 -39 -59 -20 -117 -33 -147 -33 -45 0 -50 2 -50 23 0 13 5 28
11 34 7 7 5 15 -6 27 -19 19 -42 21 -47 5 -3 -8 -18 -9 -48 -4 -36 6 -56 19
-106 69 -52 52 -64 72 -84 134 -21 65 -22 85 -17 194 5 101 10 127 27 150 11
15 20 33 20 40 0 8 28 41 63 74 82 79 137 99 250 91 44 -4 83 -10 86 -14 7 -9
87 -53 95 -53 4 0 6 230 6 512 l0 511 26 45 c32 54 21 76 -22 43 -15 -11 -22
-21 -15 -21 6 0 11 -11 11 -25 0 -20 -5 -25 -26 -25 -49 0 -219 21 -306 37
-80 15 -88 19 -88 40 0 20 5 23 41 23 22 0 48 -4 58 -10 13 -6 24 -5 37 5 18
13 17 14 -13 15 -18 0 -67 11 -109 25 -42 14 -89 25 -105 25 -15 0 -77 18
-136 41 -59 23 -139 53 -178 67 -181 65 -574 247 -710 328 -58 34 -102 54
-120 54 -8 0 -15 7 -15 15 0 9 -9 15 -25 15 -14 0 -25 5 -25 10 0 6 -7 10 -15
10 -8 0 -15 6 -15 13 0 9 -12 11 -39 9 -32 -3 -41 0 -50 16 -6 12 -20 24 -31
27 -11 3 -20 15 -20 26 0 14 -7 19 -26 19 -21 0 -65 26 -167 100 -12 8 -31 24
-43 35 -11 11 -51 45 -89 75 -55 45 -220 198 -294 271 -46 47 -166 183 -194
220 -9 13 -44 56 -77 95 -32 39 -89 118 -125 175 -36 57 -75 114 -85 127 -11
12 -20 28 -20 36 0 7 -7 19 -15 26 -8 6 -17 22 -21 33 -4 12 -17 36 -30 53
-13 17 -24 35 -24 41 0 11 -98 204 -111 218 -5 5 -9 15 -9 23 0 8 -6 28 -14
45 -45 98 -157 429 -183 537 -84 359 -77 313 -113 840 -18 258 -11 463 26 789
14 119 48 304 74 401 5 19 23 87 40 150 17 63 35 124 40 135 5 11 17 47 26 80
9 33 20 64 25 70 5 5 9 18 9 29 0 18 26 80 71 169 10 20 17 37 16 37 -2 0 -37
-37 -78 -81z m-659 -1021 c0 -47 -12 -68 -36 -68 -20 0 -24 5 -24 29 0 45 10
61 36 61 18 0 24 -5 24 -22z M1747 9119 c-3 -13 -1 -19 6 -16 15 5 22 37 9 37
-5 0 -12 -9 -15 -21z M1767 9041 c-3 -11 1 -40 9 -63 l13 -43 -6 60 c-7 68 -8
74 -16 46z M1764 8825 c-3 -8 -2 -32 4 -52 9 -38 9 -38 8 14 -1 56 -3 62 -12
38z M1783 8540 c0 -25 2 -35 4 -22 2 12 2 32 0 45 -2 12 -4 2 -4 -23z M9181
8188 c0 -9 -4 -25 -7 -35 -5 -17 -5 -17 6 0 6 10 9 25 7 35 -4 15 -5 15 -6 0z
M9163 8070 c0 -25 2 -35 4 -22 2 12 2 32 0 45 -2 12 -4 2 -4 -23z M9144 8006
c-3 -8 -4 -25 -2 -38 3 -17 5 -13 9 15 5 38 2 47 -7 23z M9106 7924 c-3 -9 -6
-25 -6 -37 0 -27 16 -11 25 26 8 29 -8 39 -19 11z M10567 7783 c-4 -3 -7 -20
-6 -37 l1 -31 8 35 c9 36 8 45 -3 33z M9088 6934 c-5 -4 -8 -16 -8 -28 0 -14
3 -17 11 -9 6 6 9 19 7 28 -1 9 -6 13 -10 9z M10587 5863 c-2 -4 -7 -21 -10
-38 -6 -30 -6 -30 9 4 8 18 13 35 11 38 -3 2 -7 1 -10 -4z M3844 5173 c8 -9
79 -33 84 -29 3 4 -73 36 -85 36 -3 0 -3 -3 1 -7z M4005 5099 c4 -5 15 -9 25
-9 10 0 22 -4 25 -10 3 -5 21 -9 38 -9 22 1 25 3 12 6 -11 3 -22 9 -25 13 -8
11 -81 20 -75 9z M4150 5060 l-25 -6 24 -7 c28 -7 64 6 40 15 -8 2 -25 2 -39
-2z M9747 4109 l-42 -41 48 37 c26 21 47 39 47 41 0 11 -15 0 -53 -37z M1190
4105 c33 -19 50 -18 26 0 -11 8 -27 15 -35 15 -10 -1 -7 -6 9 -15z M1340 4101
c0 -18 17 -20 36 -6 18 14 18 14 -8 15 -16 0 -28 -4 -28 -9z M5189 2873 c-17
-46 -5 -53 24 -12 27 37 27 39 7 39 -13 0 -24 -10 -31 -27z M8665 2840 c-10
-11 -24 -20 -32 -20 -7 0 -13 -4 -13 -10 0 -5 3 -10 6 -10 8 0 94 51 94 56 0
12 -40 1 -55 -16z M2235 2831 c11 -5 36 -11 55 -15 l35 -7 -34 16 c-18 8 -43
15 -55 14 -20 0 -20 -1 -1 -8z"/>
</g>
</svg>
